<svg id="svg" version="1.1" xmlns="http://www.w3.org/2000/svg" xmlns:xlink="http://www.w3.org/1999/xlink" width="400" height="400" viewBox="0, 0, 400,400"><g id="svgg"><path id="path0" d="M154.880 172.480 C 154.579 172.781,154.400 174.276,154.400 176.483 L 154.400 180.007 152.219 182.379 C 146.036 189.104,146.498 195.361,152.937 192.114 C 155.413 190.866,154.792 192.505,150.984 197.269 C 147.713 201.364,147.535 201.797,148.981 202.160 C 149.792 202.363,150.287 202.059,151.836 200.403 C 152.866 199.301,153.850 198.400,154.021 198.400 C 154.192 198.400,154.345 203.452,154.360 209.628 C 154.375 215.803,154.490 221.023,154.617 221.228 C 154.998 221.844,230.277 221.718,230.676 221.100 C 230.854 220.825,231.090 216.289,231.200 211.019 L 231.400 201.438 232.939 200.628 C 234.422 199.848,234.497 199.845,235.011 200.547 C 235.563 201.302,237.716 201.183,238.219 200.369 C 238.605 199.745,239.096 199.958,239.329 200.850 C 239.697 202.258,244.043 200.188,245.678 197.825 C 245.831 197.604,246.089 197.556,246.252 197.718 C 246.414 197.881,246.334 198.226,246.073 198.487 C 245.813 198.747,245.600 199.464,245.600 200.080 C 245.600 201.740,246.900 201.541,250.104 199.392 C 252.795 197.587,253.212 196.972,252.337 196.097 C 252.008 195.768,251.997 195.484,252.298 195.117 C 252.710 194.615,252.940 193.517,252.846 192.500 C 252.774 191.719,252.088 191.901,250.200 193.200 C 248.057 194.675,247.504 194.722,247.835 193.404 C 248.261 191.706,247.024 191.717,245.525 193.424 C 244.803 194.246,243.580 195.179,242.806 195.496 C 242.033 195.813,240.818 196.629,240.106 197.309 C 237.765 199.546,238.242 198.085,240.792 195.209 C 242.870 192.865,243.207 192.291,242.796 191.795 C 242.098 190.954,241.389 191.056,240.685 192.100 C 238.498 195.342,233.600 199.226,233.600 197.719 C 233.600 197.369,238.147 191.981,244.335 185.000 C 247.655 181.253,248.329 180.169,247.718 179.558 C 247.163 179.003,244.800 180.179,244.800 181.010 C 244.800 181.335,244.662 181.600,244.493 181.600 C 244.324 181.600,243.919 182.027,243.593 182.550 C 242.859 183.725,238.703 188.513,236.779 190.400 C 235.573 191.583,232.973 192.800,231.652 192.800 C 229.834 192.800,230.948 188.055,233.388 185.400 C 236.537 181.975,237.675 180.160,237.018 179.615 C 236.468 179.158,234.400 180.056,234.400 180.750 C 234.400 181.140,231.845 184.006,231.500 184.003 C 231.335 184.001,231.200 181.648,231.200 178.774 C 231.200 175.899,231.014 173.199,230.786 172.774 C 230.273 171.816,155.832 171.528,154.880 172.480 M177.186 174.959 C 176.864 175.266,175.070 176.823,173.200 178.418 C 171.330 180.013,168.274 182.748,166.408 184.494 C 161.555 189.038,160.344 189.501,162.790 185.876 C 168.563 177.323,166.868 173.035,159.268 176.965 C 157.628 177.813,157.600 177.802,157.600 176.267 C 157.600 174.340,157.267 174.400,167.952 174.400 C 176.373 174.400,177.688 174.480,177.186 174.959 M227.520 174.880 C 227.854 175.214,228.000 177.342,228.000 181.879 L 228.000 188.398 226.569 189.982 C 225.782 190.853,224.747 191.676,224.269 191.810 C 221.357 192.629,218.723 193.960,216.800 195.583 C 213.340 198.502,207.945 201.811,207.450 201.317 C 207.089 200.955,208.351 198.854,209.204 198.398 C 209.642 198.164,210.001 197.753,210.002 197.486 C 210.003 197.219,210.958 195.920,212.125 194.600 C 218.731 187.127,224.286 179.587,223.784 178.774 C 223.270 177.943,221.191 178.371,220.804 179.388 C 219.732 182.208,198.721 201.254,197.752 200.285 C 197.659 200.192,198.982 198.534,200.691 196.600 C 209.819 186.277,213.127 180.154,211.063 177.400 C 207.937 173.227,192.800 185.021,192.800 191.630 C 192.800 192.642,191.363 194.400,190.535 194.400 C 190.237 194.400,190.051 194.035,190.105 193.557 C 190.285 191.960,189.068 191.751,187.355 193.083 C 185.247 194.724,184.223 195.078,184.822 193.960 C 185.958 191.836,184.128 191.361,182.588 193.380 C 182.009 194.139,180.785 195.136,179.868 195.597 C 178.951 196.057,177.795 196.718,177.300 197.066 C 175.812 198.111,176.280 197.134,178.387 194.800 C 180.541 192.414,180.647 192.200,179.907 191.743 C 179.032 191.202,177.932 191.311,177.688 191.964 C 177.322 192.946,173.531 196.800,172.932 196.800 C 172.300 196.800,172.226 196.155,172.816 195.790 C 173.835 195.160,175.281 192.297,174.747 191.967 C 173.173 190.994,168.138 192.783,165.648 195.200 C 162.763 198.000,163.205 203.130,166.105 200.505 C 166.833 199.846,166.898 199.846,167.380 200.505 C 168.013 201.371,168.510 201.375,170.286 200.532 C 171.600 199.909,171.717 199.909,172.066 200.532 C 172.560 201.416,173.533 201.372,175.000 200.400 C 176.573 199.358,177.183 199.378,176.900 200.463 C 176.642 201.448,178.731 201.311,179.974 200.261 C 180.318 199.970,181.320 199.317,182.200 198.810 L 183.800 197.888 182.700 198.960 C 181.449 200.180,181.369 200.510,182.167 201.172 C 182.726 201.636,186.449 200.092,187.027 199.156 C 187.456 198.462,187.831 198.815,187.816 199.900 C 187.792 201.525,189.811 201.230,192.854 199.164 C 195.032 197.684,195.997 195.981,194.476 196.300 C 194.214 196.355,194.000 196.300,194.000 196.177 C 194.000 195.803,196.551 193.600,196.989 193.596 C 197.215 193.593,198.476 192.783,199.792 191.796 C 201.108 190.808,202.233 190.000,202.292 190.000 C 202.674 190.000,202.229 190.793,201.170 192.000 C 199.201 194.245,196.165 198.869,195.565 200.537 C 194.101 204.610,197.728 203.161,205.376 196.620 C 209.767 192.865,210.291 192.651,208.411 195.385 C 203.128 203.063,205.020 205.436,212.486 200.495 L 213.991 199.500 214.775 200.450 L 215.559 201.400 217.159 200.500 C 219.031 199.447,219.200 199.418,219.200 200.151 C 219.200 201.596,220.381 201.767,222.491 200.628 L 224.538 199.522 225.214 200.418 C 225.736 201.111,226.129 201.254,226.945 201.050 L 228.000 200.785 228.000 208.312 C 228.000 213.634,227.859 215.981,227.520 216.320 C 227.162 216.678,222.841 216.800,210.545 216.800 L 194.050 216.800 194.271 218.161 C 194.452 219.275,194.335 219.606,193.631 219.983 C 191.986 220.864,190.363 219.563,191.187 218.024 C 191.832 216.819,191.577 216.800,174.782 216.800 C 162.242 216.800,158.403 216.685,158.084 216.300 C 157.761 215.910,157.361 206.583,157.562 204.131 C 157.601 203.649,162.654 197.234,169.952 188.400 C 175.908 181.190,178.172 177.751,178.177 175.900 L 178.182 174.400 202.611 174.400 C 221.078 174.400,227.157 174.517,227.520 174.880 M164.718 177.832 C 164.788 178.316,163.817 180.216,162.371 182.428 C 159.516 186.794,159.547 186.757,159.312 186.100 C 159.214 185.825,158.814 185.600,158.423 185.600 C 156.352 185.600,157.201 179.956,159.446 178.797 C 160.081 178.469,160.690 178.109,160.800 177.995 C 161.930 176.832,164.559 176.723,164.718 177.832 M209.819 178.830 C 210.330 179.658,206.215 186.589,204.915 187.088 C 204.574 187.219,203.944 187.107,203.516 186.840 C 202.852 186.426,202.707 186.470,202.532 187.140 C 202.419 187.572,201.983 188.016,201.563 188.126 C 201.143 188.235,200.790 188.567,200.778 188.863 C 200.753 189.460,196.889 192.400,196.129 192.400 C 192.720 192.400,202.950 179.164,207.002 178.333 C 208.017 178.125,209.550 178.395,209.819 178.830 M155.062 183.531 C 154.593 184.049,154.400 185.000,154.400 186.785 C 154.400 189.556,153.966 190.209,151.275 191.486 C 147.907 193.085,150.458 186.514,154.328 183.625 C 155.673 182.622,155.913 182.591,155.062 183.531 M170.800 182.971 C 170.800 183.066,170.574 183.381,170.298 183.671 C 169.851 184.143,166.981 187.603,165.719 189.194 C 162.854 192.804,159.635 196.917,158.947 197.847 C 157.879 199.289,157.537 198.982,157.500 196.549 C 157.471 194.656,157.507 194.602,160.835 191.462 C 167.214 185.445,170.800 182.389,170.800 182.971 M217.587 185.500 C 217.563 186.080,216.405 187.338,216.140 187.073 C 215.992 186.926,216.198 186.444,216.598 186.002 C 217.377 185.142,217.607 185.025,217.587 185.500 M180.678 188.714 C 179.810 189.673,179.817 190.290,180.700 190.560 C 182.170 191.009,183.000 190.577,183.000 189.362 C 183.000 187.937,181.707 187.576,180.678 188.714 M243.680 188.480 C 243.130 189.030,243.042 190.255,243.531 190.557 C 244.527 191.173,246.903 189.036,246.107 188.240 C 245.695 187.828,244.183 187.977,243.680 188.480 M228.480 192.480 C 228.216 192.744,228.000 193.395,228.000 193.926 C 228.000 194.807,225.532 197.600,224.755 197.600 C 224.596 197.600,224.181 197.709,223.833 197.843 C 223.477 197.979,223.200 197.880,223.200 197.615 C 223.200 196.898,227.719 192.000,228.380 192.000 C 228.831 192.000,228.853 192.107,228.480 192.480 M171.200 193.953 C 171.200 194.425,168.110 197.200,167.585 197.200 C 166.903 197.200,167.857 195.770,169.298 194.635 C 170.666 193.557,171.200 193.365,171.200 193.953 M222.400 194.629 C 222.400 194.976,221.302 196.000,220.929 196.000 C 220.748 196.001,220.077 196.451,219.438 197.000 C 217.457 198.704,217.692 198.068,219.739 196.184 C 221.511 194.553,222.400 194.033,222.400 194.629 M232.500 195.278 C 232.017 195.761,231.502 196.035,231.354 195.887 C 230.965 195.498,231.987 194.400,232.738 194.400 C 233.252 194.400,233.205 194.572,232.500 195.278 M154.671 224.900 C 152.282 228.102,150.721 230.817,150.940 231.387 C 151.149 231.931,155.201 232.000,187.187 232.000 L 223.200 232.000 223.200 230.387 C 223.200 227.068,224.700 225.133,227.700 224.585 C 232.194 223.764,226.328 223.600,192.420 223.600 L 155.641 223.600 154.671 224.900 " stroke="none" fill="#2a2d2f" fill-rule="evenodd"></path><path id="path1" d="M0.000 200.000 L 0.000 400.000 200.000 400.000 L 400.000 400.000 400.000 200.000 L 400.000 0.000 200.000 0.000 L 0.000 0.000 0.000 200.000 M246.818 151.998 C 248.776 152.542,249.216 153.051,262.553 170.200 C 275.453 186.788,275.518 186.901,273.647 189.538 C 273.233 190.122,272.513 191.275,272.047 192.100 C 271.581 192.925,270.840 194.230,270.400 195.000 C 269.960 195.770,269.240 197.030,268.800 197.800 C 268.360 198.570,267.640 199.830,267.200 200.600 C 266.760 201.370,266.040 202.630,265.600 203.400 C 265.160 204.170,264.440 205.430,264.000 206.200 C 263.560 206.970,262.840 208.230,262.400 209.000 C 261.960 209.770,261.240 211.030,260.800 211.800 C 260.360 212.570,259.623 213.875,259.162 214.700 C 258.702 215.525,258.162 216.371,257.962 216.580 C 257.145 217.438,257.691 218.418,259.749 219.784 C 262.750 221.776,265.600 226.371,265.600 229.217 C 265.600 229.826,266.267 230.333,268.300 231.269 C 269.785 231.953,272.818 233.365,275.040 234.407 L 279.080 236.301 279.297 242.429 C 279.417 245.799,279.425 248.792,279.315 249.078 C 278.957 250.010,120.920 249.832,120.654 248.900 C 120.544 248.515,120.577 245.502,120.727 242.204 L 121.000 236.208 123.800 234.277 C 125.340 233.214,126.819 232.218,127.088 232.064 C 127.578 231.780,127.412 229.168,126.370 220.800 C 126.165 219.150,125.888 216.495,125.755 214.900 L 125.513 212.000 127.556 212.000 C 129.830 212.000,129.977 211.722,129.244 208.800 C 129.051 208.030,128.677 206.050,128.413 204.400 C 128.148 202.750,127.778 200.590,127.590 199.600 C 125.734 189.833,125.723 189.600,127.138 189.600 C 127.995 189.600,128.982 190.581,128.656 191.109 C 128.539 191.298,128.705 192.791,129.024 194.426 C 129.599 197.374,129.925 199.194,130.848 204.600 C 131.896 210.744,132.217 211.800,133.032 211.800 C 133.898 211.800,133.944 209.859,133.217 204.000 C 133.012 202.350,132.647 199.110,132.404 196.800 C 132.162 194.490,131.800 191.446,131.600 190.037 C 131.343 188.230,131.377 187.020,131.715 185.937 C 132.227 184.297,132.800 183.896,132.800 185.176 C 132.800 185.603,132.953 186.047,133.140 186.163 C 133.327 186.279,133.691 188.044,133.949 190.087 C 134.207 192.129,134.596 195.150,134.812 196.800 C 135.028 198.450,135.204 200.554,135.203 201.476 C 135.201 202.809,135.965 204.553,136.012 203.324 C 136.019 203.146,136.187 201.740,136.386 200.200 C 136.584 198.660,136.789 195.690,136.841 193.600 C 136.944 189.476,137.355 188.000,138.400 188.000 C 139.218 188.000,140.032 189.632,139.610 190.426 C 139.442 190.742,139.194 193.070,139.059 195.600 C 138.925 198.130,138.695 201.595,138.550 203.300 C 138.360 205.515,138.415 206.400,138.742 206.400 C 138.994 206.400,139.200 206.008,139.200 205.528 C 139.200 205.049,139.368 204.104,139.573 203.428 C 139.932 202.247,140.162 201.363,141.247 197.000 C 141.742 195.010,143.128 192.414,143.700 192.405 C 144.451 192.393,143.843 196.506,142.040 203.642 C 139.802 212.498,139.768 212.000,142.600 212.000 C 145.211 212.000,145.168 211.933,144.753 215.400 C 144.568 216.940,144.297 219.325,144.151 220.700 L 143.884 223.200 193.127 223.200 L 242.369 223.200 244.134 221.500 C 245.782 219.913,247.053 219.126,249.667 218.076 C 250.748 217.642,251.337 216.760,256.000 208.600 C 256.440 207.830,257.160 206.570,257.600 205.800 C 258.040 205.030,258.760 203.770,259.200 203.000 C 259.640 202.230,260.360 200.970,260.800 200.200 C 261.240 199.430,261.960 198.170,262.400 197.400 C 262.840 196.630,263.560 195.370,264.000 194.600 C 264.440 193.830,265.160 192.570,265.600 191.800 C 268.445 186.822,268.522 187.820,264.944 183.315 C 263.875 181.968,260.062 177.072,256.471 172.433 C 252.880 167.795,249.781 164.000,249.585 164.000 C 248.778 164.000,246.450 166.918,244.055 170.934 C 241.009 176.039,241.006 176.040,238.194 172.026 C 236.534 169.656,235.631 168.740,234.633 168.411 C 232.722 167.780,231.982 166.771,231.645 164.336 C 231.412 162.651,230.912 161.602,229.275 159.367 C 228.134 157.809,227.200 156.438,227.200 156.319 C 227.200 156.086,229.212 155.550,233.000 154.773 C 237.529 153.844,239.750 153.204,240.033 152.747 C 240.189 152.495,241.098 152.210,242.054 152.115 C 243.010 152.019,243.869 151.864,243.963 151.770 C 244.240 151.493,245.305 151.578,246.818 151.998 M230.800 171.991 C 231.276 172.291,231.427 173.532,231.530 177.999 L 231.661 183.628 233.270 181.607 C 235.435 178.888,236.334 178.391,237.313 179.370 C 238.111 180.169,237.647 182.454,236.400 183.868 C 231.275 189.674,231.143 189.869,231.477 191.103 L 231.800 192.291 233.698 191.734 C 235.578 191.182,240.210 186.478,244.158 181.110 C 246.293 178.208,248.629 178.277,248.150 181.229 C 247.996 182.180,247.218 183.431,245.789 185.024 C 243.666 187.391,243.663 187.400,244.729 187.531 C 246.174 187.707,246.488 188.089,246.591 189.792 C 246.650 190.752,246.969 191.443,247.540 191.843 C 248.013 192.174,248.400 192.705,248.400 193.023 C 248.400 193.793,248.522 193.765,250.238 192.600 C 252.950 190.759,253.730 191.465,253.264 195.336 C 252.961 197.847,251.754 200.021,251.052 199.319 C 250.924 199.190,250.705 199.381,250.567 199.743 C 250.428 200.104,250.064 200.400,249.757 200.400 C 249.451 200.400,249.200 200.580,249.200 200.800 C 249.200 201.020,249.007 201.200,248.771 201.200 C 248.536 201.200,248.073 201.470,247.744 201.799 C 247.085 202.458,245.818 202.036,244.958 200.870 C 244.577 200.353,244.325 200.416,243.118 201.337 C 241.594 202.500,239.358 202.477,238.904 201.294 C 238.724 200.825,238.524 200.899,237.941 201.651 C 237.447 202.289,237.106 202.452,236.903 202.149 C 236.269 201.205,233.327 201.073,232.451 201.949 C 231.693 202.707,231.634 203.345,231.521 212.012 C 231.413 220.282,231.326 221.320,230.699 221.777 C 229.552 222.615,155.460 222.431,154.617 221.589 C 154.105 221.076,153.995 219.319,153.935 210.689 C 153.857 199.418,153.896 199.558,151.503 201.894 C 150.023 203.340,149.937 203.369,148.889 202.781 C 147.173 201.818,147.370 201.050,150.260 197.427 C 152.680 194.393,154.591 191.259,153.143 192.700 C 152.866 192.975,152.305 193.200,151.896 193.200 C 151.487 193.200,151.264 193.380,151.400 193.600 C 151.547 193.837,151.080 194.000,150.253 194.000 C 145.789 194.000,146.555 188.047,151.787 182.074 L 154.000 179.549 154.000 176.054 C 154.000 173.870,154.180 172.380,154.480 172.080 C 155.084 171.476,229.845 171.388,230.800 171.991 M158.267 175.067 C 157.648 175.686,157.991 176.889,158.700 176.585 C 159.085 176.419,160.300 175.963,161.400 175.570 L 163.400 174.856 160.967 174.828 C 159.628 174.813,158.413 174.920,158.267 175.067 M165.911 175.423 C 167.325 176.413,167.133 179.242,165.422 182.641 C 164.665 184.146,164.117 185.451,164.206 185.540 C 164.413 185.746,168.256 182.539,168.908 181.616 C 169.179 181.234,170.930 179.611,172.800 178.011 C 174.670 176.410,176.275 175.033,176.367 174.950 C 176.458 174.868,173.943 174.800,170.778 174.800 C 165.454 174.800,165.089 174.847,165.911 175.423 M178.898 176.224 C 178.723 178.675,177.167 181.082,171.101 188.281 C 167.453 192.612,167.346 192.972,170.004 191.962 C 173.605 190.593,175.810 191.112,175.355 193.221 C 175.170 194.080,175.323 194.004,176.597 192.605 C 177.396 191.728,178.263 190.990,178.525 190.966 C 178.786 190.942,179.180 190.894,179.400 190.860 C 179.620 190.826,179.820 190.240,179.845 189.557 C 179.949 186.663,183.400 186.803,183.400 189.701 C 183.400 191.428,183.486 191.601,184.337 191.601 C 184.939 191.600,185.350 191.887,185.484 192.400 C 185.752 193.425,186.478 193.418,187.417 192.381 C 188.377 191.320,190.031 191.496,190.639 192.723 C 191.210 193.875,192.400 192.975,192.400 191.390 C 192.400 185.224,205.871 173.858,210.403 176.201 C 214.090 178.108,209.972 190.253,204.200 194.494 C 203.980 194.656,203.966 194.791,204.169 194.794 C 205.241 194.812,219.727 180.771,220.363 179.097 C 221.233 176.810,224.392 177.536,224.294 180.000 C 224.235 181.477,223.647 182.362,218.414 188.854 C 209.246 200.228,208.669 201.913,216.217 195.269 C 217.988 193.710,221.890 191.600,223.003 191.600 C 226.173 191.600,227.380 189.129,227.528 182.338 C 227.715 173.779,231.053 174.800,202.886 174.801 L 179.000 174.802 178.898 176.224 M161.943 178.356 C 162.701 178.836,161.829 179.327,160.799 179.000 C 160.190 178.806,160.061 178.894,160.245 179.374 C 160.377 179.718,160.320 180.000,160.118 180.000 C 158.240 180.000,157.055 184.860,158.821 185.321 C 159.684 185.547,160.931 184.135,163.067 180.512 C 164.188 178.611,164.043 177.997,162.476 178.006 C 161.720 178.010,161.562 178.115,161.943 178.356 M207.500 179.088 C 208.325 179.370,208.074 179.773,206.700 180.370 C 204.342 181.396,196.180 190.313,196.920 191.054 C 197.246 191.379,200.368 189.043,200.385 188.463 C 200.393 188.167,200.760 187.831,201.200 187.716 C 201.640 187.601,202.000 187.252,202.000 186.941 C 202.000 186.143,202.989 185.859,203.959 186.378 C 204.853 186.856,206.487 185.027,208.475 181.321 C 209.470 179.468,209.443 179.343,207.999 179.091 C 207.450 178.995,207.225 178.994,207.500 179.088 M152.279 187.293 C 149.796 190.629,149.516 191.535,151.125 191.024 C 152.590 190.559,154.000 188.901,154.000 187.643 C 154.000 185.918,153.394 185.795,152.279 187.293 M163.750 189.715 C 162.589 190.967,159.935 193.200,159.609 193.200 C 158.918 193.200,158.000 194.982,158.000 196.322 C 158.000 197.062,158.161 197.607,158.357 197.533 C 158.822 197.360,164.400 189.978,164.400 189.537 C 164.400 189.099,164.295 189.128,163.750 189.715 M268.115 190.577 C 266.681 192.791,266.543 193.929,267.657 194.351 C 268.641 194.723,269.592 194.285,269.609 193.451 C 269.614 193.203,269.970 192.550,270.400 192.000 C 271.438 190.673,271.402 189.747,270.300 189.452 C 269.021 189.109,269.087 189.076,268.115 190.577 M241.200 190.200 C 240.794 190.689,240.816 190.800,241.318 190.800 C 241.657 190.800,242.240 190.917,242.614 191.061 C 243.200 191.286,243.230 191.204,242.832 190.461 C 242.289 189.446,241.880 189.381,241.200 190.200 M180.668 192.349 C 180.353 193.952,181.054 194.328,182.208 193.174 L 183.205 192.177 182.040 191.737 C 180.955 191.328,180.860 191.370,180.668 192.349 M243.600 191.767 C 243.600 192.079,243.500 192.596,243.377 192.916 C 242.983 193.943,244.513 194.147,245.302 193.173 C 245.980 192.336,245.980 192.273,245.306 191.761 C 244.378 191.057,243.600 191.060,243.600 191.767 M197.600 193.833 C 197.050 194.139,196.742 194.391,196.916 194.394 C 197.089 194.397,196.884 194.772,196.460 195.228 C 196.036 195.683,195.592 196.538,195.473 197.128 C 195.348 197.749,194.758 198.494,194.071 198.898 C 193.419 199.281,192.246 200.234,191.465 201.015 C 190.196 202.284,189.947 202.384,189.123 201.955 C 188.615 201.691,187.930 201.346,187.600 201.188 C 187.248 201.020,186.548 201.220,185.909 201.672 C 184.826 202.436,183.894 202.382,181.552 201.420 C 181.188 201.271,180.646 201.411,180.318 201.739 C 179.597 202.460,176.498 201.790,176.314 200.874 C 176.233 200.469,175.885 200.621,175.103 201.404 C 174.277 202.232,173.877 202.396,173.483 202.069 C 172.737 201.450,169.400 200.952,169.745 201.511 C 170.112 202.105,169.279 202.558,168.682 202.090 C 167.717 201.331,166.000 201.141,166.000 201.792 C 166.000 202.618,165.506 202.556,164.254 201.571 C 163.544 201.013,163.200 200.360,163.200 199.571 C 163.200 197.879,162.853 198.095,160.400 201.313 L 158.200 204.200 158.200 210.000 L 158.200 215.800 192.400 216.000 C 221.856 216.172,226.669 216.120,227.100 215.624 C 227.453 215.217,227.600 213.250,227.600 208.934 L 227.600 202.821 226.300 202.132 C 225.030 201.460,221.835 201.004,222.868 201.642 C 224.010 202.348,221.811 202.521,219.977 201.869 C 217.725 201.069,217.167 201.034,217.300 201.700 C 217.404 202.219,216.612 202.243,214.721 201.779 C 213.946 201.589,213.300 201.759,212.422 202.385 C 211.647 202.936,210.871 203.172,210.300 203.031 C 209.805 202.908,209.625 202.911,209.900 203.037 C 211.019 203.551,210.351 204.081,208.900 203.830 C 207.857 203.649,207.579 203.690,207.988 203.963 C 209.188 204.765,208.023 204.828,206.488 204.045 C 204.436 202.998,204.314 202.586,205.236 199.792 C 206.161 196.987,206.086 196.849,204.467 198.396 C 203.774 199.058,203.015 199.600,202.780 199.600 C 202.545 199.600,202.464 199.780,202.600 200.000 C 202.736 200.220,202.556 200.400,202.200 200.400 C 201.844 200.400,201.664 200.580,201.800 200.800 C 201.936 201.020,201.766 201.200,201.422 201.200 C 200.551 201.200,197.800 202.721,197.800 203.203 C 197.800 203.421,197.665 203.600,197.500 203.600 C 197.335 203.600,196.943 203.600,196.629 203.600 C 195.232 203.600,194.100 200.165,195.179 199.200 C 195.669 198.761,197.600 195.735,197.600 195.404 C 197.600 195.210,197.991 194.635,198.470 194.126 C 199.435 193.098,199.117 192.991,197.600 193.833 M264.971 196.109 C 264.514 196.819,263.885 197.985,263.573 198.700 C 263.260 199.415,262.869 200.000,262.702 200.000 C 262.126 200.000,262.396 202.313,263.000 202.545 C 263.824 202.861,264.677 202.478,264.943 201.672 C 265.065 201.303,265.717 200.100,266.391 199.000 C 268.378 195.762,268.387 195.581,266.600 195.054 C 265.999 194.877,265.593 195.140,264.971 196.109 M260.368 204.300 C 260.056 204.905,259.711 205.490,259.601 205.600 C 258.335 206.862,257.564 209.287,258.260 209.819 C 259.397 210.690,259.966 210.373,261.165 208.200 C 261.771 207.100,262.512 205.810,262.810 205.332 C 263.258 204.615,263.261 204.355,262.827 203.832 C 262.033 202.876,261.001 203.072,260.368 204.300 M256.600 210.916 C 256.222 211.374,254.806 213.929,253.840 215.897 C 253.598 216.390,253.254 216.795,253.076 216.797 C 252.898 216.799,252.864 216.980,253.000 217.200 C 253.136 217.420,253.823 217.600,254.527 217.600 C 255.895 217.600,256.020 217.464,258.064 213.744 L 259.194 211.688 258.211 211.044 C 257.059 210.289,257.113 210.294,256.600 210.916 M191.752 218.181 C 191.447 218.976,191.899 219.600,192.781 219.600 C 193.676 219.600,194.103 218.663,193.489 218.049 C 192.864 217.424,192.018 217.489,191.752 218.181 M227.800 226.062 C 225.493 227.338,224.725 231.647,226.388 233.983 C 227.731 235.869,229.289 236.040,244.000 235.914 L 257.400 235.800 257.400 230.800 L 257.400 225.800 243.000 225.709 C 233.062 225.647,228.352 225.756,227.800 226.062 M149.695 232.800 C 149.811 233.401,221.227 233.978,222.767 233.390 C 224.929 232.565,219.589 232.408,186.078 232.308 C 153.812 232.213,149.593 232.270,149.695 232.800 " stroke="none" fill="#fbfbfb" fill-rule="evenodd"></path><path id="path2" d="M242.600 152.561 C 241.720 152.826,240.331 153.349,239.513 153.722 C 238.695 154.095,237.773 154.400,237.465 154.400 C 236.792 154.400,228.387 156.280,228.193 156.474 C 227.927 156.739,237.624 170.796,240.226 173.918 L 241.053 174.909 243.965 170.155 C 246.604 165.846,248.733 163.200,249.559 163.200 C 249.729 163.200,251.203 164.931,252.834 167.047 C 255.902 171.025,259.114 175.136,263.600 180.824 C 265.030 182.637,266.788 185.036,267.508 186.154 C 269.592 189.395,272.119 190.392,273.571 188.546 C 274.915 186.837,274.926 186.854,261.818 169.989 C 247.164 151.134,247.206 151.172,242.600 152.561 M128.317 212.319 L 126.034 212.439 126.275 215.119 C 126.408 216.594,126.903 220.918,127.376 224.729 C 128.353 232.605,128.396 232.408,125.307 234.258 L 123.400 235.400 173.400 235.659 C 200.900 235.802,223.555 235.773,223.745 235.594 C 224.940 234.471,222.829 234.400,187.676 234.377 C 150.609 234.353,148.705 234.290,148.471 233.075 C 148.360 232.498,149.797 230.086,150.779 229.200 C 150.901 229.090,151.253 228.511,151.561 227.914 C 151.869 227.316,152.273 226.922,152.460 227.037 C 152.647 227.153,152.800 226.887,152.800 226.447 C 152.800 226.007,152.980 225.536,153.200 225.400 C 154.363 224.681,153.181 224.400,149.000 224.400 C 143.883 224.400,142.270 223.738,143.191 222.017 C 143.416 221.597,143.600 219.991,143.600 218.450 C 143.600 216.908,143.780 215.536,144.000 215.400 C 144.220 215.264,144.400 214.533,144.400 213.776 L 144.400 212.400 141.700 212.339 C 136.087 212.212,130.520 212.204,128.317 212.319 M248.600 218.953 C 246.242 220.086,241.763 223.798,242.417 224.079 C 242.518 224.122,246.200 224.257,250.600 224.379 C 258.319 224.592,258.595 224.628,258.464 225.400 C 258.295 226.393,258.370 229.357,258.653 232.900 L 258.868 235.600 267.058 235.600 C 272.416 235.600,275.162 235.462,275.000 235.200 C 274.864 234.980,274.519 234.800,274.233 234.800 C 273.946 234.800,272.652 234.278,271.356 233.640 C 270.060 233.002,268.350 232.195,267.555 231.847 C 265.651 231.014,265.172 230.375,264.908 228.316 C 264.289 223.497,259.735 218.887,254.990 218.277 C 253.895 218.136,252.640 217.928,252.200 217.814 C 251.745 217.697,250.194 218.188,248.600 218.953 M168.900 239.119 C 166.505 239.233,165.724 239.655,167.000 240.145 C 167.330 240.271,167.901 240.259,168.269 240.118 C 168.778 239.923,168.877 240.023,168.680 240.535 C 168.352 241.390,169.156 243.200,169.864 243.200 C 170.159 243.200,170.400 243.350,170.400 243.533 C 170.400 243.717,173.775 243.852,177.900 243.833 L 185.400 243.800 185.458 241.500 L 185.517 239.200 182.144 239.200 C 179.699 239.200,178.498 239.379,177.776 239.853 C 176.854 240.456,176.725 240.456,176.058 239.853 C 175.114 238.998,174.171 239.025,173.523 239.926 C 173.235 240.326,172.681 240.772,172.290 240.918 C 171.762 241.115,171.645 241.441,171.834 242.191 C 172.047 243.042,171.948 243.200,171.200 243.200 C 170.459 243.200,170.354 243.039,170.559 242.221 C 170.730 241.541,170.604 241.130,170.146 240.874 C 169.086 240.281,169.822 239.744,171.575 239.834 C 172.466 239.879,173.109 239.777,173.004 239.607 C 172.704 239.121,171.604 238.990,168.900 239.119 M148.633 240.212 C 147.914 243.075,149.402 244.966,150.991 243.209 C 151.385 242.775,151.844 242.504,152.012 242.607 C 152.401 242.848,152.800 241.815,152.800 240.567 C 152.800 240.035,152.980 239.600,153.200 239.600 C 153.420 239.600,153.600 240.230,153.600 241.000 C 153.600 242.133,153.752 242.400,154.400 242.400 C 154.840 242.400,155.200 242.580,155.200 242.800 C 155.200 243.020,154.750 243.200,154.200 243.200 C 153.650 243.200,153.200 243.380,153.200 243.600 C 153.200 244.159,154.651 244.099,155.618 243.500 C 156.258 243.103,156.488 243.102,156.733 243.495 C 157.255 244.334,163.205 243.979,163.757 243.077 C 164.105 242.508,164.056 242.246,163.527 241.852 C 163.156 241.576,162.732 240.867,162.583 240.275 C 162.217 238.815,160.596 238.763,160.236 240.200 C 159.923 241.444,159.298 241.501,159.128 240.300 C 159.004 239.428,158.844 239.397,153.946 239.288 L 148.893 239.177 148.633 240.212 M187.439 239.538 C 187.115 240.061,187.997 242.849,188.407 242.596 C 188.617 242.466,188.581 241.957,188.320 241.384 C 187.819 240.284,188.229 239.489,188.822 240.412 C 189.062 240.786,189.309 240.853,189.500 240.595 C 190.199 239.652,192.262 240.137,192.072 241.200 C 191.805 242.692,191.210 243.307,190.558 242.765 C 190.069 242.359,188.800 243.061,188.800 243.738 C 188.800 244.115,191.588 243.708,192.138 243.251 C 192.565 242.897,192.807 242.926,193.178 243.374 C 194.140 244.532,200.800 243.948,200.800 242.706 C 200.800 242.359,200.677 242.363,200.320 242.720 C 199.141 243.899,197.600 243.302,197.600 241.667 C 197.600 239.498,199.781 238.860,200.078 240.942 C 200.145 241.414,200.380 241.743,200.600 241.674 C 201.066 241.527,200.906 240.421,200.313 239.700 C 199.836 239.120,187.791 238.968,187.439 239.538 M202.738 240.990 C 202.544 243.427,204.389 245.236,205.400 243.600 C 205.544 243.367,205.137 243.200,204.424 243.200 C 203.214 243.200,202.482 240.491,203.519 239.850 C 204.228 239.412,204.975 240.307,204.440 240.952 C 203.849 241.664,204.171 242.400,205.074 242.400 C 205.556 242.400,205.645 242.125,205.460 241.200 C 205.325 240.523,205.390 240.000,205.610 240.000 C 205.825 240.000,206.000 239.820,206.000 239.600 C 206.000 239.380,205.298 239.200,204.440 239.200 C 202.881 239.200,202.881 239.200,202.738 240.990 M206.889 239.693 C 204.849 242.151,208.401 245.656,210.651 243.406 C 211.177 242.880,211.351 242.880,212.155 243.407 C 213.298 244.156,213.820 243.723,212.825 242.850 C 212.011 242.135,211.362 240.000,211.960 240.000 C 212.166 240.000,212.725 240.631,213.202 241.402 C 213.678 242.174,214.224 242.709,214.414 242.591 C 214.604 242.474,214.948 242.728,215.177 243.157 C 215.630 244.004,221.730 244.360,222.220 243.568 C 222.345 243.366,221.824 243.200,221.062 243.200 C 219.713 243.200,219.678 243.160,219.753 241.700 C 219.850 239.806,220.558 239.369,220.725 241.100 C 220.812 241.999,221.059 242.403,221.525 242.409 C 221.896 242.414,222.650 242.770,223.200 243.200 C 224.276 244.042,225.411 244.229,225.784 243.626 C 225.911 243.420,225.434 243.195,224.723 243.126 C 223.727 243.029,223.376 242.771,223.189 242.000 C 223.037 241.372,222.707 241.041,222.303 241.111 C 221.893 241.181,221.611 240.889,221.529 240.311 C 221.373 239.208,207.768 238.634,206.889 239.693 M223.779 239.633 C 223.655 239.835,223.747 240.000,223.984 240.000 C 224.249 240.000,224.314 240.402,224.153 241.043 C 223.983 241.723,224.078 242.201,224.427 242.417 C 225.217 242.905,225.600 242.500,225.600 241.176 C 225.600 240.529,225.780 240.000,226.000 240.000 C 226.389 240.000,226.466 240.332,226.557 242.387 C 226.620 243.831,228.465 244.427,229.624 243.378 C 230.425 242.654,230.501 242.649,230.980 243.305 C 231.530 244.057,234.400 244.304,234.400 243.600 C 234.400 243.380,233.786 243.200,233.035 243.200 C 231.687 243.200,231.672 243.180,231.735 241.500 C 231.782 240.284,231.971 239.800,232.400 239.800 C 232.822 239.800,232.983 240.185,232.941 241.100 C 232.895 242.122,233.041 242.400,233.627 242.400 C 234.037 242.400,234.565 242.760,234.800 243.200 C 235.274 244.085,238.520 244.376,239.014 243.577 C 239.395 242.961,238.848 241.123,238.372 241.417 C 238.150 241.555,238.066 241.976,238.186 242.354 C 238.361 242.908,238.138 243.049,237.039 243.080 C 235.688 243.118,235.675 243.101,235.742 241.459 C 235.806 239.916,235.885 239.808,236.875 239.910 C 237.461 239.971,238.047 239.847,238.178 239.635 C 238.328 239.394,235.733 239.253,231.211 239.258 C 227.248 239.263,223.904 239.432,223.779 239.633 M150.596 239.993 C 150.995 240.639,150.352 243.200,149.791 243.200 C 149.373 243.200,149.180 240.414,149.548 239.700 C 149.680 239.445,150.378 239.641,150.596 239.993 M158.400 241.224 C 158.400 242.133,158.581 242.400,159.200 242.400 C 159.640 242.400,160.000 242.580,160.000 242.800 C 160.000 243.020,159.387 243.200,158.638 243.200 C 157.346 243.200,156.921 241.804,157.563 239.676 C 157.741 239.086,158.400 240.305,158.400 241.224 M161.816 241.077 C 161.622 241.853,161.744 242.112,162.384 242.280 C 163.613 242.601,163.363 243.200,162.000 243.200 C 160.829 243.200,160.144 240.789,161.056 239.878 C 161.575 239.358,162.057 240.118,161.816 241.077 M176.211 241.489 C 176.909 243.159,176.698 243.579,175.528 242.848 C 174.841 242.419,174.635 242.419,174.368 242.852 C 173.839 243.708,173.428 242.878,173.896 241.899 C 174.134 241.405,174.433 240.674,174.561 240.275 C 174.874 239.301,175.485 239.749,176.211 241.489 M180.800 240.624 C 180.800 240.941,180.620 241.200,180.400 241.200 C 180.180 241.200,180.000 240.829,180.000 240.376 C 180.000 239.923,180.180 239.664,180.400 239.800 C 180.620 239.936,180.800 240.307,180.800 240.624 M184.189 240.149 C 184.806 239.912,184.822 239.978,184.340 240.766 C 183.870 241.533,183.891 241.717,184.500 242.168 C 185.526 242.930,185.376 243.091,183.637 243.091 L 182.075 243.091 182.186 241.445 C 182.326 239.365,182.299 239.418,182.949 239.958 C 183.251 240.209,183.809 240.295,184.189 240.149 M196.000 240.447 C 196.000 240.641,195.820 240.800,195.600 240.800 C 194.941 240.800,195.148 242.072,195.900 242.643 C 196.522 243.115,196.433 243.176,195.100 243.187 C 193.676 243.199,192.785 240.948,193.809 239.924 C 194.132 239.602,196.000 240.047,196.000 240.447 M209.125 241.131 C 209.202 241.909,209.473 242.400,209.825 242.400 C 210.141 242.400,210.400 242.580,210.400 242.800 C 210.400 243.020,209.860 243.200,209.200 243.200 C 208.041 243.200,208.000 243.137,208.000 241.367 C 208.000 239.235,208.919 239.042,209.125 241.131 M216.957 240.233 C 217.091 240.581,217.200 241.211,217.200 241.633 C 217.200 242.055,217.470 242.400,217.800 242.400 C 218.130 242.400,218.400 242.591,218.400 242.825 C 218.400 243.064,217.831 243.196,217.103 243.125 C 215.764 242.996,215.769 243.009,215.939 240.500 C 216.009 239.461,216.601 239.306,216.957 240.233 M229.000 241.398 C 229.000 242.268,228.784 243.004,228.500 243.099 C 228.147 243.217,228.000 242.716,228.000 241.400 C 228.000 240.085,228.148 239.582,228.500 239.700 C 228.784 239.794,229.000 240.528,229.000 241.398 M156.000 240.600 C 156.000 240.930,155.820 241.200,155.600 241.200 C 155.380 241.200,155.200 240.930,155.200 240.600 C 155.200 240.270,155.380 240.000,155.600 240.000 C 155.820 240.000,156.000 240.270,156.000 240.600 M178.994 240.819 C 178.682 241.801,179.431 242.840,180.229 242.533 C 180.543 242.413,180.800 242.514,180.800 242.757 C 180.800 243.352,178.683 243.323,178.080 242.720 C 177.220 241.860,177.785 240.000,178.907 240.000 C 179.098 240.000,179.137 240.369,178.994 240.819 M214.400 240.600 C 214.400 240.930,214.220 241.200,214.000 241.200 C 213.780 241.200,213.600 240.930,213.600 240.600 C 213.600 240.270,213.780 240.000,214.000 240.000 C 214.220 240.000,214.400 240.270,214.400 240.600 M230.400 240.800 C 230.400 241.240,230.220 241.600,230.000 241.600 C 229.780 241.600,229.600 241.240,229.600 240.800 C 229.600 240.360,229.780 240.000,230.000 240.000 C 230.220 240.000,230.400 240.360,230.400 240.800 M167.075 243.058 C 166.553 243.580,166.802 244.000,167.633 244.000 C 168.099 244.000,168.397 243.790,168.308 243.525 C 168.113 242.940,167.446 242.688,167.075 243.058 M121.200 247.400 L 121.200 248.800 200.000 248.800 L 278.800 248.800 278.800 247.400 L 278.800 246.000 200.000 246.000 L 121.200 246.000 121.200 247.400 " stroke="none" fill="#b74b3a" fill-rule="evenodd"></path><path id="path3" d="M241.600 152.293 C 241.050 152.394,240.350 152.684,240.044 152.938 C 239.737 153.192,238.837 153.606,238.044 153.858 C 237.250 154.110,236.921 154.335,237.313 154.358 C 237.705 154.381,238.695 154.095,239.513 153.722 C 240.331 153.349,241.720 152.826,242.600 152.561 C 244.168 152.088,243.577 151.929,241.600 152.293 M246.778 152.441 C 247.317 152.656,247.992 153.027,248.278 153.265 C 248.579 153.515,248.800 153.535,248.800 153.313 C 248.800 152.887,247.037 151.986,246.281 152.025 C 246.017 152.039,246.240 152.227,246.778 152.441 M233.800 154.800 C 232.781 155.238,233.832 155.238,235.200 154.800 C 236.004 154.543,236.043 154.477,235.400 154.468 C 234.960 154.462,234.240 154.611,233.800 154.800 M230.200 155.600 C 229.181 156.038,230.232 156.038,231.600 155.600 C 232.404 155.343,232.443 155.277,231.800 155.268 C 231.360 155.262,230.640 155.411,230.200 155.600 M227.760 156.641 C 227.896 156.993,228.756 158.351,229.672 159.657 C 230.916 161.430,231.415 162.594,231.639 164.252 C 231.999 166.902,232.677 167.747,235.109 168.575 L 236.938 169.198 236.114 168.299 C 234.029 166.025,228.062 156.608,228.521 156.317 C 228.839 156.114,228.751 156.010,228.257 156.006 C 227.739 156.002,227.589 156.194,227.760 156.641 M247.952 164.343 C 246.823 165.481,245.372 167.600,245.721 167.600 C 245.839 167.600,246.324 166.970,246.800 166.200 C 247.276 165.430,247.893 164.800,248.171 164.800 C 248.449 164.800,249.002 164.440,249.400 164.000 C 250.527 162.755,249.220 163.065,247.952 164.343 M243.970 170.066 C 243.698 170.580,243.213 171.405,242.892 171.900 C 242.571 172.395,242.395 172.800,242.501 172.800 C 242.836 172.800,244.869 169.536,244.662 169.329 C 244.554 169.220,244.242 169.552,243.970 170.066 M238.438 172.100 C 240.676 175.359,241.259 175.692,241.947 174.100 L 242.422 173.000 241.659 173.967 L 240.895 174.934 239.410 172.867 C 237.798 170.623,236.981 169.978,238.438 172.100 M131.664 186.220 C 131.331 186.951,131.307 187.999,131.581 189.920 C 131.792 191.394,132.162 194.490,132.404 196.800 C 132.647 199.110,133.008 202.350,133.207 204.000 C 134.140 211.719,134.136 212.000,133.107 212.000 C 132.262 212.000,132.126 211.726,131.665 209.100 C 131.385 207.505,130.996 205.300,130.801 204.200 C 130.605 203.100,130.270 201.210,130.057 200.000 C 128.798 192.851,128.763 192.749,127.641 192.879 C 126.460 193.016,126.441 193.193,127.167 197.200 C 127.426 198.630,127.801 200.790,127.999 202.000 C 128.198 203.210,128.560 205.280,128.804 206.600 C 129.047 207.920,129.350 209.675,129.476 210.500 L 129.705 212.000 127.653 212.000 L 125.600 212.000 125.640 213.900 C 125.662 214.945,125.839 216.250,126.034 216.800 C 126.279 217.490,126.333 216.964,126.209 215.100 L 126.030 212.400 128.115 212.361 C 132.121 212.287,139.022 212.275,141.700 212.337 L 144.400 212.400 144.400 213.776 C 144.400 214.533,144.220 215.264,144.000 215.400 C 143.780 215.536,143.600 216.908,143.600 218.450 C 143.600 219.991,143.416 221.597,143.191 222.017 C 142.284 223.711,143.897 224.400,148.767 224.400 C 151.169 224.400,153.419 224.509,153.767 224.643 C 154.179 224.801,154.400 224.666,154.400 224.255 C 154.400 223.719,153.630 223.607,149.300 223.512 L 144.200 223.400 144.242 220.800 C 144.265 219.370,144.426 216.805,144.599 215.100 L 144.915 212.000 142.458 212.000 C 141.106 212.000,140.000 211.935,140.000 211.856 C 140.000 211.776,140.900 208.151,142.000 203.800 C 143.100 199.449,144.000 195.384,144.000 194.768 C 144.000 192.069,142.035 193.593,141.261 196.892 C 140.597 199.725,140.023 201.945,139.573 203.428 C 139.368 204.104,139.200 205.049,139.200 205.528 C 139.200 206.008,138.994 206.400,138.742 206.400 C 138.415 206.400,138.360 205.514,138.547 203.300 C 138.692 201.595,138.925 198.250,139.067 195.867 L 139.323 191.535 138.162 191.667 L 137.000 191.800 136.754 195.841 C 136.432 201.138,136.036 203.670,135.574 203.384 C 135.368 203.257,135.200 202.343,135.200 201.353 C 135.200 200.364,135.031 198.349,134.825 196.877 C 134.618 195.405,134.238 192.501,133.981 190.425 C 133.373 185.523,132.611 184.141,131.664 186.220 M267.855 187.937 C 267.734 188.302,267.152 189.410,266.561 190.400 C 265.970 191.390,265.152 192.785,264.743 193.500 C 264.335 194.215,263.640 195.430,263.200 196.200 C 262.760 196.970,262.040 198.230,261.600 199.000 C 261.160 199.770,260.440 201.030,260.000 201.800 C 259.560 202.570,258.840 203.830,258.400 204.600 C 257.960 205.370,257.240 206.630,256.800 207.400 C 256.360 208.170,255.640 209.430,255.200 210.200 C 253.096 213.882,252.624 214.712,251.787 216.200 L 250.888 217.800 252.045 217.843 C 252.977 217.877,253.115 217.779,252.752 217.343 C 252.420 216.942,252.420 216.800,252.751 216.800 C 252.998 216.800,253.200 216.440,253.200 216.000 C 253.200 215.560,253.380 215.200,253.600 215.200 C 253.820 215.200,254.000 214.930,254.000 214.600 C 254.000 214.270,254.146 214.000,254.325 214.000 C 254.504 214.000,254.892 213.386,255.186 212.635 C 255.886 210.850,257.173 210.127,258.345 210.858 C 259.340 211.480,259.389 211.838,258.661 213.200 C 256.576 217.101,256.031 217.811,254.941 218.053 C 253.947 218.273,254.013 218.311,255.461 218.353 C 256.924 218.394,257.172 218.269,257.542 217.300 C 257.945 216.243,259.184 214.016,259.600 213.600 C 259.710 213.490,260.174 212.680,260.630 211.800 C 261.704 209.731,262.548 208.252,262.800 208.000 C 263.052 207.748,263.896 206.269,264.970 204.200 C 265.426 203.320,265.890 202.510,266.000 202.400 C 266.174 202.226,266.721 201.247,268.571 197.800 C 268.807 197.360,269.090 196.910,269.200 196.800 C 269.310 196.690,269.642 196.170,269.938 195.645 C 270.233 195.120,270.818 194.085,271.238 193.345 C 271.657 192.605,272.377 191.325,272.838 190.500 C 273.298 189.675,273.838 188.829,274.038 188.620 C 274.237 188.411,274.400 188.072,274.400 187.866 C 274.400 187.660,274.014 187.982,273.543 188.582 C 272.939 189.350,272.418 189.620,271.778 189.498 C 270.980 189.345,270.927 189.414,271.335 190.074 C 271.640 190.566,271.662 190.924,271.400 191.112 C 271.180 191.270,270.626 192.120,270.168 193.000 C 269.476 194.333,269.151 194.586,268.226 194.519 C 267.132 194.439,265.786 193.197,266.366 192.803 C 266.530 192.691,266.919 192.015,267.230 191.300 C 267.541 190.585,267.931 190.000,268.098 190.000 C 268.264 190.000,268.400 189.743,268.400 189.429 C 268.400 189.115,268.630 188.800,268.911 188.729 C 269.288 188.634,269.245 188.425,268.748 187.937 C 268.120 187.320,268.059 187.320,267.855 187.937 M137.875 188.258 C 137.724 188.410,137.603 188.818,137.606 189.167 C 137.611 189.722,137.661 189.726,138.006 189.200 C 138.356 188.667,138.447 188.667,138.822 189.200 C 139.174 189.702,139.223 189.674,139.122 189.033 C 138.992 188.216,138.329 187.804,137.875 188.258 M126.400 190.133 C 126.400 190.886,126.785 191.181,127.439 190.930 C 128.290 190.603,128.110 189.600,127.200 189.600 C 126.760 189.600,126.400 189.840,126.400 190.133 M267.403 195.438 C 268.020 196.009,268.361 196.594,268.162 196.738 C 267.963 196.882,267.426 197.720,266.970 198.600 C 264.778 202.825,264.328 203.276,262.947 202.636 C 261.994 202.195,261.539 200.000,262.400 200.000 C 262.620 200.000,262.800 199.640,262.800 199.200 C 262.800 198.760,262.936 198.400,263.102 198.400 C 263.269 198.400,263.658 197.828,263.968 197.128 C 265.218 194.304,265.846 193.995,267.403 195.438 M262.119 203.169 C 263.501 203.695,263.739 204.681,262.801 205.998 C 262.361 206.617,262.000 207.321,262.000 207.562 C 262.000 207.803,261.864 208.000,261.698 208.000 C 261.531 208.000,261.156 208.540,260.864 209.200 C 260.490 210.044,260.053 210.400,259.389 210.400 C 258.426 210.400,256.947 208.818,257.538 208.420 C 257.717 208.299,258.119 207.615,258.430 206.900 C 258.741 206.185,259.131 205.600,259.298 205.600 C 259.464 205.600,259.600 205.240,259.600 204.800 C 259.600 204.360,259.780 204.000,260.000 204.000 C 260.220 204.000,260.400 203.730,260.400 203.400 C 260.400 202.705,260.769 202.656,262.119 203.169 M126.440 220.233 C 126.462 221.315,126.629 222.650,126.811 223.200 C 127.012 223.809,127.053 223.104,126.916 221.400 C 126.650 218.095,126.383 217.442,126.440 220.233 M127.240 226.633 C 127.262 227.715,127.429 229.050,127.611 229.600 C 127.812 230.209,127.853 229.504,127.716 227.800 C 127.450 224.495,127.183 223.842,127.240 226.633 M149.198 231.202 C 148.263 232.516,148.266 233.766,149.205 233.834 C 149.553 233.859,149.592 233.807,149.300 233.709 C 148.564 233.462,148.690 232.478,149.627 231.162 C 150.082 230.523,150.364 230.000,150.254 230.000 C 150.144 230.000,149.669 230.541,149.198 231.202 M258.214 232.570 C 258.287 234.045,258.566 235.519,258.836 235.843 C 259.163 236.237,259.193 236.567,258.926 236.834 C 258.254 237.506,226.286 237.137,225.457 236.447 C 224.901 235.986,216.508 235.865,174.496 235.717 C 117.605 235.517,122.851 235.673,125.276 234.252 C 126.297 233.653,127.372 232.872,127.666 232.515 C 128.329 231.710,123.038 235.018,121.743 236.218 C 120.827 237.067,120.802 237.263,120.867 243.046 C 120.904 246.321,121.005 248.325,121.091 247.500 L 121.248 246.000 200.000 246.000 L 278.752 246.000 278.909 247.500 C 278.995 248.325,279.096 246.251,279.133 242.890 C 279.199 236.906,279.182 236.772,278.300 236.391 C 277.805 236.177,277.130 235.821,276.800 235.600 C 276.470 235.380,274.400 234.378,272.200 233.374 C 270.000 232.370,267.490 231.185,266.623 230.740 C 265.397 230.112,265.165 230.075,265.578 230.574 C 265.871 230.926,266.760 231.499,267.555 231.847 C 268.350 232.195,270.060 233.002,271.356 233.640 C 272.652 234.278,273.946 234.800,274.233 234.800 C 274.519 234.800,274.864 234.980,275.000 235.200 C 275.162 235.462,272.404 235.600,267.024 235.600 L 258.800 235.600 258.794 233.300 C 258.791 232.035,258.629 230.750,258.435 230.443 C 258.218 230.100,258.133 230.917,258.214 232.570 M169.130 234.300 C 179.102 234.359,195.302 234.359,205.130 234.300 C 214.959 234.240,206.800 234.192,187.000 234.192 C 167.200 234.192,159.159 234.240,169.130 234.300 M172.873 240.253 C 172.766 240.886,172.846 240.862,173.396 240.100 C 174.164 239.036,175.063 238.952,176.058 239.853 C 176.725 240.456,176.854 240.456,177.776 239.853 C 178.498 239.379,179.699 239.200,182.144 239.200 L 185.517 239.200 185.458 241.500 L 185.400 243.800 177.900 243.833 C 173.775 243.852,170.400 243.717,170.400 243.533 C 170.400 243.350,170.130 243.200,169.800 243.200 C 169.470 243.200,169.188 242.975,169.173 242.700 C 169.158 242.425,168.951 242.605,168.712 243.100 C 167.702 245.195,165.836 243.319,166.270 240.645 L 166.499 239.236 168.949 239.118 C 172.007 238.971,173.040 239.270,172.873 240.253 M159.128 240.300 C 159.298 241.501,159.923 241.444,160.236 240.200 C 160.596 238.763,162.217 238.815,162.583 240.275 C 162.732 240.867,163.156 241.576,163.527 241.852 C 164.056 242.246,164.105 242.508,163.757 243.077 C 163.205 243.979,157.255 244.334,156.733 243.495 C 156.488 243.102,156.258 243.103,155.618 243.500 C 154.294 244.321,153.305 244.105,152.865 242.900 C 152.644 242.295,152.449 242.036,152.432 242.324 C 152.414 242.612,152.244 242.751,152.053 242.633 C 151.863 242.515,151.385 242.775,150.991 243.209 C 149.402 244.966,147.914 243.075,148.633 240.212 L 148.893 239.177 153.946 239.288 C 158.844 239.397,159.004 239.428,159.128 240.300 M200.412 239.814 C 201.103 240.647,200.991 242.871,200.230 243.428 C 199.282 244.120,193.758 244.072,193.172 243.366 C 192.805 242.924,192.564 242.898,192.138 243.251 C 191.096 244.116,188.800 244.042,188.800 243.143 C 188.800 242.708,188.630 242.458,188.422 242.587 C 188.002 242.846,187.108 240.073,187.439 239.538 C 187.848 238.875,199.845 239.131,200.412 239.814 M206.102 239.700 C 206.236 240.098,206.396 240.096,206.888 239.690 C 208.153 238.646,221.372 239.206,221.529 240.311 C 221.687 241.425,222.816 241.358,223.412 240.200 C 223.798 239.449,224.271 239.395,231.160 239.318 C 235.196 239.273,238.395 239.338,238.270 239.463 C 238.145 239.588,238.323 240.390,238.664 241.244 C 239.538 243.427,239.198 244.000,237.032 244.000 C 235.747 244.000,235.124 243.802,234.832 243.300 C 234.444 242.633,234.424 242.633,234.412 243.300 C 234.395 244.274,231.692 244.278,230.980 243.305 C 230.501 242.650,230.424 242.654,229.616 243.385 C 228.882 244.049,228.586 244.094,227.542 243.701 C 226.618 243.352,226.142 243.354,225.570 243.711 C 224.967 244.088,224.583 244.044,223.650 243.493 C 222.673 242.916,222.449 242.896,222.267 243.371 C 221.897 244.335,215.715 244.162,215.185 243.172 C 214.691 242.249,213.911 242.328,213.497 243.344 C 213.214 244.037,213.127 244.044,212.220 243.450 C 211.358 242.885,211.177 242.880,210.651 243.406 C 209.928 244.129,208.271 244.176,207.195 243.504 C 206.562 243.109,206.238 243.109,205.605 243.504 C 203.676 244.709,202.523 243.697,202.738 240.990 C 202.883 239.170,205.576 238.138,206.102 239.700 " stroke="none" fill="#d88c4c" fill-rule="evenodd"></path><path id="path4" d="M229.000 155.600 C 228.496 155.817,228.422 155.944,228.800 155.944 C 229.130 155.944,229.760 155.789,230.200 155.600 C 230.704 155.383,230.778 155.256,230.400 155.256 C 230.070 155.256,229.440 155.411,229.000 155.600 M251.983 157.100 C 252.451 157.705,253.231 158.783,253.717 159.495 C 254.202 160.207,254.747 160.792,254.927 160.795 C 255.106 160.798,254.405 159.720,253.368 158.400 C 252.330 157.080,251.404 156.000,251.308 156.000 C 251.212 156.000,251.516 156.495,251.983 157.100 M255.944 162.300 C 256.382 162.905,257.308 164.030,258.001 164.800 C 258.694 165.570,258.427 165.075,257.407 163.700 C 256.388 162.325,255.462 161.200,255.349 161.200 C 255.237 161.200,255.505 161.695,255.944 162.300 M253.673 168.831 C 257.050 173.188,257.555 173.376,254.358 169.087 C 252.951 167.199,251.658 165.642,251.484 165.627 C 251.311 165.612,252.296 167.054,253.673 168.831 M261.544 169.500 C 261.982 170.105,262.908 171.230,263.601 172.000 C 264.294 172.770,264.027 172.275,263.007 170.900 C 261.988 169.525,261.062 168.400,260.949 168.400 C 260.837 168.400,261.105 168.895,261.544 169.500 M154.480 172.080 C 154.180 172.380,154.000 173.870,154.000 176.054 L 154.000 179.549 151.787 182.074 C 146.555 188.047,145.789 194.000,150.253 194.000 C 151.080 194.000,151.547 193.837,151.400 193.600 C 151.264 193.380,151.487 193.200,151.896 193.200 C 152.305 193.200,152.866 192.975,153.143 192.700 C 154.591 191.259,152.680 194.393,150.260 197.427 C 147.370 201.050,147.173 201.818,148.889 202.781 C 149.937 203.369,150.023 203.340,151.503 201.894 C 153.896 199.558,153.857 199.418,153.935 210.689 C 153.995 219.319,154.105 221.076,154.617 221.589 C 155.460 222.431,229.552 222.615,230.699 221.777 C 231.326 221.320,231.413 220.282,231.521 212.012 C 231.634 203.345,231.693 202.707,232.451 201.949 C 233.327 201.073,236.269 201.205,236.903 202.149 C 237.106 202.452,237.447 202.289,237.941 201.651 C 238.524 200.899,238.724 200.825,238.904 201.294 C 239.358 202.477,241.594 202.500,243.118 201.337 C 244.325 200.416,244.577 200.353,244.958 200.870 C 245.818 202.036,247.085 202.458,247.744 201.799 C 248.073 201.470,248.536 201.200,248.771 201.200 C 249.007 201.200,249.200 201.020,249.200 200.800 C 249.200 200.580,249.451 200.400,249.757 200.400 C 250.064 200.400,250.428 200.104,250.567 199.743 C 250.705 199.381,250.924 199.190,251.052 199.319 C 251.754 200.021,252.961 197.847,253.264 195.336 C 253.730 191.465,252.950 190.759,250.238 192.600 C 248.522 193.765,248.400 193.793,248.400 193.023 C 248.400 192.705,248.013 192.174,247.540 191.843 C 246.969 191.443,246.650 190.752,246.591 189.792 C 246.488 188.089,246.174 187.707,244.729 187.531 C 243.663 187.400,243.666 187.391,245.789 185.024 C 247.218 183.431,247.996 182.180,248.150 181.229 C 248.629 178.277,246.293 178.208,244.158 181.110 C 240.210 186.478,235.578 191.182,233.698 191.734 L 231.800 192.291 231.477 191.103 C 231.143 189.869,231.275 189.674,236.400 183.868 C 237.647 182.454,238.111 180.169,237.313 179.370 C 236.334 178.391,235.435 178.888,233.270 181.607 L 231.661 183.628 231.530 177.999 C 231.427 173.532,231.276 172.291,230.800 171.991 C 229.845 171.388,155.084 171.476,154.480 172.080 M230.786 172.774 C 231.014 173.199,231.200 175.899,231.200 178.774 C 231.200 181.648,231.335 184.001,231.500 184.003 C 231.845 184.006,234.400 181.140,234.400 180.750 C 234.400 180.056,236.468 179.158,237.018 179.615 C 237.675 180.160,236.537 181.975,233.388 185.400 C 230.948 188.055,229.834 192.800,231.652 192.800 C 232.973 192.800,235.573 191.583,236.779 190.400 C 238.703 188.513,242.859 183.725,243.593 182.550 C 243.919 182.027,244.324 181.600,244.493 181.600 C 244.662 181.600,244.800 181.335,244.800 181.010 C 244.800 180.179,247.163 179.003,247.718 179.558 C 248.329 180.169,247.655 181.253,244.335 185.000 C 238.147 191.981,233.600 197.369,233.600 197.719 C 233.600 199.226,238.498 195.342,240.685 192.100 C 241.389 191.056,242.098 190.954,242.796 191.795 C 243.207 192.291,242.870 192.865,240.792 195.209 C 238.242 198.085,237.765 199.546,240.106 197.309 C 240.818 196.629,242.033 195.813,242.806 195.496 C 243.580 195.179,244.803 194.246,245.525 193.424 C 247.024 191.717,248.261 191.706,247.835 193.404 C 247.504 194.722,248.057 194.675,250.200 193.200 C 252.088 191.901,252.774 191.719,252.846 192.500 C 252.940 193.517,252.710 194.615,252.298 195.117 C 251.997 195.484,252.008 195.768,252.337 196.097 C 253.212 196.972,252.795 197.587,250.104 199.392 C 246.900 201.541,245.600 201.740,245.600 200.080 C 245.600 199.464,245.813 198.747,246.073 198.487 C 246.334 198.226,246.414 197.881,246.252 197.718 C 246.089 197.556,245.831 197.604,245.678 197.825 C 244.043 200.188,239.697 202.258,239.329 200.850 C 239.096 199.958,238.605 199.745,238.219 200.369 C 237.716 201.183,235.563 201.302,235.011 200.547 C 234.497 199.845,234.422 199.848,232.939 200.628 L 231.400 201.438 231.200 211.019 C 231.090 216.289,230.854 220.825,230.676 221.100 C 230.277 221.718,154.998 221.844,154.617 221.228 C 154.490 221.023,154.375 215.803,154.360 209.628 C 154.345 203.452,154.192 198.400,154.021 198.400 C 153.850 198.400,152.866 199.301,151.836 200.403 C 150.287 202.059,149.792 202.363,148.981 202.160 C 147.535 201.797,147.713 201.364,150.984 197.269 C 154.792 192.505,155.413 190.866,152.937 192.114 C 146.498 195.361,146.036 189.104,152.219 182.379 L 154.400 180.007 154.400 176.483 C 154.400 174.276,154.579 172.781,154.880 172.480 C 155.832 171.528,230.273 171.816,230.786 172.774 M259.224 175.967 C 260.629 177.780,261.956 179.373,262.173 179.507 C 262.390 179.641,261.423 178.271,260.023 176.461 C 258.624 174.652,257.296 173.060,257.074 172.922 C 256.851 172.785,257.819 174.155,259.224 175.967 M157.867 174.667 C 157.547 174.986,157.505 177.600,157.820 177.600 C 157.941 177.600,158.592 177.314,159.268 176.965 C 166.868 173.035,168.563 177.323,162.790 185.876 C 160.344 189.501,161.555 189.038,166.408 184.494 C 168.274 182.748,171.330 180.013,173.200 178.418 C 175.070 176.823,176.864 175.266,177.186 174.959 C 177.688 174.480,176.373 174.400,167.952 174.400 C 162.552 174.400,158.013 174.520,157.867 174.667 M178.177 175.900 C 178.172 177.751,175.908 181.190,169.952 188.400 C 162.654 197.234,157.601 203.649,157.562 204.131 C 157.361 206.583,157.761 215.910,158.084 216.300 C 158.403 216.685,162.296 216.800,175.049 216.800 C 184.152 216.800,191.600 216.902,191.600 217.026 C 191.600 217.151,191.421 217.588,191.201 217.997 C 190.365 219.560,191.970 220.872,193.631 219.983 C 194.335 219.606,194.452 219.275,194.271 218.161 L 194.050 216.800 210.545 216.800 C 222.841 216.800,227.162 216.678,227.520 216.320 C 227.859 215.981,228.000 213.634,228.000 208.312 L 228.000 200.785 226.945 201.050 C 226.129 201.254,225.736 201.111,225.214 200.418 L 224.538 199.522 222.491 200.628 C 220.381 201.767,219.200 201.596,219.200 200.151 C 219.200 199.418,219.031 199.447,217.159 200.500 L 215.559 201.400 214.775 200.450 L 213.991 199.500 212.486 200.495 C 205.020 205.436,203.128 203.063,208.411 195.385 C 210.291 192.651,209.767 192.865,205.376 196.620 C 197.728 203.161,194.101 204.610,195.565 200.537 C 196.165 198.869,199.201 194.245,201.170 192.000 C 202.229 190.793,202.674 190.000,202.292 190.000 C 202.233 190.000,201.108 190.808,199.792 191.796 C 198.476 192.783,197.215 193.593,196.989 193.596 C 196.551 193.600,194.000 195.803,194.000 196.177 C 194.000 196.300,194.214 196.355,194.476 196.300 C 195.997 195.981,195.032 197.684,192.854 199.164 C 189.811 201.230,187.792 201.525,187.816 199.900 C 187.831 198.815,187.456 198.462,187.027 199.156 C 186.449 200.092,182.726 201.636,182.167 201.172 C 181.369 200.510,181.449 200.180,182.700 198.960 L 183.800 197.888 182.200 198.810 C 181.320 199.317,180.318 199.970,179.974 200.261 C 178.731 201.311,176.642 201.448,176.900 200.463 C 177.183 199.378,176.573 199.358,175.000 200.400 C 173.533 201.372,172.560 201.416,172.066 200.532 C 171.717 199.909,171.600 199.909,170.286 200.532 C 168.510 201.375,168.013 201.371,167.380 200.505 C 166.898 199.846,166.833 199.846,166.105 200.505 C 163.205 203.130,162.763 198.000,165.648 195.200 C 168.138 192.783,173.173 190.994,174.747 191.967 C 175.281 192.297,173.835 195.160,172.816 195.790 C 172.226 196.155,172.300 196.800,172.932 196.800 C 173.531 196.800,177.322 192.946,177.688 191.964 C 177.932 191.311,179.032 191.202,179.907 191.743 C 180.647 192.200,180.541 192.414,178.387 194.800 C 176.280 197.134,175.812 198.111,177.300 197.066 C 177.795 196.718,178.951 196.057,179.868 195.597 C 180.785 195.136,182.009 194.139,182.588 193.380 C 184.128 191.361,185.958 191.836,184.822 193.960 C 184.223 195.078,185.247 194.724,187.355 193.083 C 189.068 191.751,190.285 191.960,190.105 193.557 C 190.051 194.035,190.237 194.400,190.535 194.400 C 191.363 194.400,192.800 192.642,192.800 191.630 C 192.800 185.021,207.937 173.227,211.063 177.400 C 213.127 180.154,209.819 186.277,200.691 196.600 C 198.982 198.534,197.659 200.192,197.752 200.285 C 198.721 201.254,219.732 182.208,220.804 179.388 C 221.191 178.371,223.270 177.943,223.784 178.774 C 224.286 179.587,218.731 187.127,212.125 194.600 C 210.958 195.920,210.003 197.219,210.002 197.486 C 210.001 197.753,209.642 198.164,209.204 198.398 C 208.351 198.854,207.089 200.955,207.450 201.317 C 207.945 201.811,213.340 198.502,216.800 195.583 C 218.723 193.960,221.357 192.629,224.269 191.810 C 224.747 191.676,225.782 190.853,226.569 189.982 L 228.000 188.398 228.000 181.879 C 228.000 177.342,227.854 175.214,227.520 174.880 C 227.157 174.517,221.078 174.400,202.611 174.400 L 178.182 174.400 178.177 175.900 M161.400 175.570 C 160.300 175.963,159.085 176.419,158.700 176.585 C 158.171 176.812,158.000 176.697,158.000 176.109 C 158.000 174.937,158.324 174.798,160.967 174.828 L 163.400 174.856 161.400 175.570 M176.367 174.950 C 176.275 175.033,174.670 176.410,172.800 178.011 C 170.930 179.611,169.179 181.234,168.908 181.616 C 168.256 182.539,164.413 185.746,164.206 185.540 C 164.117 185.451,164.665 184.146,165.422 182.641 C 167.133 179.242,167.325 176.413,165.911 175.423 C 165.089 174.847,165.454 174.800,170.778 174.800 C 173.943 174.800,176.458 174.868,176.367 174.950 M227.214 175.627 C 228.107 177.296,227.546 188.038,226.495 189.371 C 225.573 190.542,223.915 191.600,223.003 191.600 C 221.890 191.600,217.988 193.710,216.217 195.269 C 208.669 201.913,209.246 200.228,218.414 188.854 C 223.647 182.362,224.235 181.477,224.294 180.000 C 224.392 177.536,221.233 176.810,220.363 179.097 C 219.727 180.771,205.241 194.812,204.169 194.794 C 203.966 194.791,203.980 194.656,204.200 194.494 C 209.972 190.253,214.090 178.108,210.403 176.201 C 205.871 173.858,192.400 185.224,192.400 191.390 C 192.400 192.975,191.210 193.875,190.639 192.723 C 190.031 191.496,188.377 191.320,187.417 192.381 C 186.478 193.418,185.752 193.425,185.484 192.400 C 185.350 191.887,184.939 191.600,184.337 191.601 C 183.486 191.601,183.400 191.428,183.400 189.701 C 183.400 186.803,179.949 186.663,179.845 189.557 C 179.820 190.240,179.620 190.826,179.400 190.860 C 179.180 190.894,178.786 190.942,178.525 190.966 C 178.263 190.990,177.396 191.728,176.597 192.605 C 175.323 194.004,175.170 194.080,175.355 193.221 C 175.810 191.112,173.605 190.593,170.004 191.962 C 167.346 192.972,167.453 192.612,171.101 188.281 C 177.167 181.082,178.723 178.675,178.898 176.224 L 179.000 174.802 202.886 174.801 C 226.621 174.800,226.775 174.805,227.214 175.627 M267.144 176.700 C 267.582 177.305,268.508 178.430,269.201 179.200 C 269.894 179.970,269.627 179.475,268.607 178.100 C 267.588 176.725,266.662 175.600,266.549 175.600 C 266.437 175.600,266.705 176.095,267.144 176.700 M162.200 177.333 C 161.540 177.584,160.910 177.882,160.800 177.995 C 160.690 178.109,160.081 178.469,159.446 178.797 C 157.201 179.956,156.352 185.600,158.423 185.600 C 158.814 185.600,159.214 185.825,159.312 186.100 C 159.547 186.757,159.516 186.794,162.371 182.428 C 165.497 177.647,165.445 176.098,162.200 177.333 M163.807 178.412 C 164.429 179.417,159.954 185.618,158.821 185.321 C 157.055 184.860,158.240 180.000,160.118 180.000 C 160.320 180.000,160.377 179.718,160.245 179.374 C 160.061 178.894,160.190 178.806,160.799 179.000 C 161.829 179.327,162.701 178.836,161.943 178.356 C 161.562 178.115,161.720 178.010,162.476 178.006 C 163.068 178.003,163.667 178.185,163.807 178.412 M207.002 178.333 C 202.950 179.164,192.720 192.400,196.129 192.400 C 196.889 192.400,200.753 189.460,200.778 188.863 C 200.790 188.567,201.143 188.235,201.563 188.126 C 201.983 188.016,202.419 187.572,202.532 187.140 C 202.707 186.470,202.852 186.426,203.516 186.840 C 204.673 187.563,205.362 187.107,207.198 184.404 C 210.600 179.393,210.543 177.607,207.002 178.333 M209.187 179.454 C 210.008 180.275,204.984 186.927,203.959 186.378 C 202.989 185.859,202.000 186.143,202.000 186.941 C 202.000 187.252,201.640 187.601,201.200 187.716 C 200.760 187.831,200.393 188.167,200.385 188.463 C 200.368 189.043,197.246 191.379,196.920 191.054 C 196.180 190.313,204.342 181.396,206.700 180.370 C 208.074 179.773,208.325 179.370,207.500 179.088 C 207.225 178.994,207.450 178.995,207.999 179.091 C 208.549 179.187,209.083 179.350,209.187 179.454 M263.067 180.945 C 263.470 181.464,264.745 183.111,265.900 184.604 C 267.055 186.098,268.000 187.183,268.000 187.017 C 268.000 186.642,262.836 180.000,262.545 180.000 C 262.429 180.000,262.663 180.425,263.067 180.945 M271.159 181.800 C 271.611 182.460,272.542 183.630,273.229 184.400 C 274.309 185.613,274.368 185.640,273.667 184.600 C 273.222 183.940,272.291 182.770,271.598 182.000 C 270.510 180.792,270.450 180.765,271.159 181.800 M168.524 184.454 C 167.466 185.364,164.575 187.993,162.100 190.297 L 157.600 194.486 157.600 196.643 C 157.600 199.128,157.979 199.324,159.255 197.500 C 159.755 196.785,161.308 194.760,162.706 193.000 C 164.103 191.240,165.461 189.527,165.723 189.194 C 166.831 187.786,169.835 184.159,170.298 183.671 C 170.812 183.130,170.936 182.800,170.624 182.800 C 170.528 182.800,169.583 183.544,168.524 184.454 M154.296 183.634 C 153.375 184.171,150.488 188.092,149.797 189.745 C 148.999 191.655,149.551 192.304,151.275 191.486 C 153.978 190.204,154.400 189.561,154.400 186.733 C 154.400 185.265,154.606 183.954,154.880 183.680 C 155.461 183.099,155.244 183.082,154.296 183.634 M216.598 186.002 C 216.198 186.444,215.992 186.926,216.140 187.073 C 216.405 187.338,217.563 186.080,217.587 185.500 C 217.607 185.025,217.377 185.142,216.598 186.002 M154.000 187.643 C 154.000 188.901,152.590 190.559,151.125 191.024 C 149.516 191.535,149.796 190.629,152.279 187.293 C 153.394 185.795,154.000 185.918,154.000 187.643 M183.000 189.362 C 183.000 190.577,182.170 191.009,180.700 190.560 C 179.817 190.290,179.810 189.673,180.678 188.714 C 181.707 187.576,183.000 187.937,183.000 189.362 M246.107 188.240 C 246.903 189.036,244.527 191.173,243.531 190.557 C 243.042 190.255,243.130 189.030,243.680 188.480 C 244.183 187.977,245.695 187.828,246.107 188.240 M137.188 189.000 C 136.744 191.353,136.895 191.848,138.004 191.685 C 139.246 191.502,140.139 190.064,139.569 189.163 C 139.316 188.764,139.210 188.746,139.206 189.100 C 139.203 189.375,138.855 189.600,138.433 189.600 C 138.012 189.600,137.576 189.375,137.465 189.100 C 137.354 188.825,137.229 188.780,137.188 189.000 M268.400 189.400 C 268.400 189.730,268.254 190.000,268.075 190.000 C 267.896 190.000,267.502 190.630,267.200 191.400 C 266.898 192.170,266.494 192.800,266.302 192.800 C 266.110 192.800,266.079 193.005,266.234 193.255 C 266.406 193.534,266.773 193.186,267.182 192.355 C 268.564 189.550,268.940 189.155,270.000 189.397 C 270.761 189.570,270.857 189.527,270.400 189.218 C 269.508 188.615,268.400 188.716,268.400 189.400 M164.400 189.537 C 164.400 189.978,158.822 197.360,158.357 197.533 C 158.161 197.607,158.000 197.062,158.000 196.322 C 158.000 194.982,158.918 193.200,159.609 193.200 C 159.935 193.200,162.589 190.967,163.750 189.715 C 164.295 189.128,164.400 189.099,164.400 189.537 M242.832 190.461 C 243.230 191.204,243.200 191.286,242.614 191.061 C 242.240 190.917,241.657 190.800,241.318 190.800 C 240.816 190.800,240.794 190.689,241.200 190.200 C 241.880 189.381,242.289 189.446,242.832 190.461 M126.005 190.624 C 126.019 192.485,126.417 193.059,127.579 192.888 C 128.610 192.737,128.962 191.590,128.444 190.071 C 128.420 190.001,128.097 190.246,127.727 190.616 C 127.096 191.246,127.021 191.243,126.527 190.568 C 126.024 189.881,126.000 189.883,126.005 190.624 M182.208 193.174 C 181.054 194.328,180.353 193.952,180.668 192.349 C 180.860 191.370,180.955 191.328,182.040 191.737 L 183.205 192.177 182.208 193.174 M245.306 191.761 C 245.980 192.273,245.980 192.336,245.302 193.173 C 244.513 194.147,242.983 193.943,243.377 192.916 C 243.500 192.596,243.600 192.079,243.600 191.767 C 243.600 191.060,244.378 191.057,245.306 191.761 M269.683 193.222 C 269.210 194.108,268.986 194.732,269.186 194.609 C 269.612 194.345,270.864 191.931,270.673 191.740 C 270.602 191.668,270.156 192.335,269.683 193.222 M225.500 194.572 C 223.217 197.125,222.613 198.311,223.833 197.843 C 224.181 197.709,224.596 197.600,224.755 197.600 C 225.532 197.600,228.000 194.807,228.000 193.926 C 228.000 193.395,228.216 192.744,228.480 192.480 C 228.853 192.107,228.831 192.000,228.380 192.000 C 228.061 192.000,226.765 193.158,225.500 194.572 M143.081 192.933 C 142.968 193.227,143.129 193.467,143.438 193.467 C 143.747 193.467,144.000 193.227,144.000 192.933 C 144.000 192.640,143.839 192.400,143.643 192.400 C 143.446 192.400,143.193 192.640,143.081 192.933 M198.470 194.126 C 197.991 194.635,197.600 195.210,197.600 195.404 C 197.600 195.735,195.669 198.761,195.179 199.200 C 194.100 200.165,195.232 203.600,196.629 203.600 C 196.943 203.600,197.335 203.600,197.500 203.600 C 197.665 203.600,197.800 203.421,197.800 203.203 C 197.800 202.721,200.551 201.200,201.422 201.200 C 201.766 201.200,201.936 201.020,201.800 200.800 C 201.664 200.580,201.844 200.400,202.200 200.400 C 202.556 200.400,202.736 200.220,202.600 200.000 C 202.464 199.780,202.545 199.600,202.780 199.600 C 203.015 199.600,203.774 199.058,204.467 198.396 C 206.086 196.849,206.161 196.987,205.236 199.792 C 204.314 202.586,204.436 202.998,206.488 204.045 C 208.023 204.828,209.188 204.765,207.988 203.963 C 207.579 203.690,207.857 203.649,208.900 203.830 C 210.351 204.081,211.019 203.551,209.900 203.037 C 209.625 202.911,209.805 202.908,210.300 203.031 C 210.871 203.172,211.647 202.936,212.422 202.385 C 213.300 201.759,213.946 201.589,214.721 201.779 C 216.612 202.243,217.404 202.219,217.300 201.700 C 217.167 201.034,217.725 201.069,219.977 201.869 C 221.811 202.521,224.010 202.348,222.868 201.642 C 221.835 201.004,225.030 201.460,226.300 202.132 L 227.600 202.821 227.600 208.934 C 227.600 213.250,227.453 215.217,227.100 215.624 C 226.669 216.120,221.856 216.172,192.400 216.000 L 158.200 215.800 158.200 210.000 L 158.200 204.200 160.400 201.313 C 162.853 198.095,163.200 197.879,163.200 199.571 C 163.200 200.360,163.544 201.013,164.254 201.571 C 165.506 202.556,166.000 202.618,166.000 201.792 C 166.000 201.141,167.717 201.331,168.682 202.090 C 169.279 202.558,170.112 202.105,169.745 201.511 C 169.400 200.952,172.737 201.450,173.483 202.069 C 173.877 202.396,174.277 202.232,175.103 201.404 C 175.885 200.621,176.233 200.469,176.314 200.874 C 176.498 201.790,179.597 202.460,180.318 201.739 C 180.646 201.411,181.188 201.271,181.552 201.420 C 183.894 202.382,184.826 202.436,185.909 201.672 C 186.548 201.220,187.248 201.020,187.600 201.188 C 187.930 201.346,188.615 201.691,189.123 201.955 C 189.947 202.384,190.196 202.284,191.465 201.015 C 192.246 200.234,193.419 199.281,194.071 198.898 C 194.758 198.494,195.348 197.749,195.473 197.128 C 195.592 196.538,196.036 195.683,196.460 195.228 C 196.884 194.772,197.089 194.397,196.916 194.394 C 196.520 194.387,198.466 193.293,198.970 193.239 C 199.173 193.218,198.948 193.617,198.470 194.126 M169.298 194.635 C 167.857 195.770,166.903 197.200,167.585 197.200 C 168.110 197.200,171.200 194.425,171.200 193.953 C 171.200 193.365,170.666 193.557,169.298 194.635 M219.739 196.184 C 217.692 198.068,217.457 198.704,219.438 197.000 C 220.077 196.451,220.748 196.001,220.929 196.000 C 221.302 196.000,222.400 194.976,222.400 194.629 C 222.400 194.033,221.511 194.553,219.739 196.184 M231.592 195.010 C 230.768 196.003,231.545 196.232,232.500 195.278 C 233.205 194.572,233.252 194.400,232.738 194.400 C 232.386 194.400,231.870 194.674,231.592 195.010 M265.154 195.128 C 264.811 195.529,264.277 196.429,263.968 197.128 C 263.658 197.828,263.269 198.400,263.102 198.400 C 262.936 198.400,262.801 198.805,262.802 199.300 C 262.803 199.975,263.034 199.749,263.726 198.400 C 265.206 195.512,265.765 194.778,266.320 194.991 C 266.607 195.101,266.732 195.013,266.597 194.795 C 266.241 194.219,265.857 194.307,265.154 195.128 M266.782 198.301 C 266.478 198.905,265.907 199.878,265.514 200.462 C 265.121 201.046,264.801 201.766,264.802 202.062 C 264.804 202.358,265.046 202.150,265.340 201.600 C 265.634 201.050,266.272 199.904,266.757 199.053 C 267.242 198.202,267.571 197.437,267.487 197.354 C 267.403 197.270,267.086 197.696,266.782 198.301 M262.093 201.200 C 262.093 201.970,262.175 202.285,262.276 201.900 C 262.376 201.515,262.376 200.885,262.276 200.500 C 262.175 200.115,262.093 200.430,262.093 201.200 M260.400 203.400 C 260.400 203.730,260.220 204.000,260.000 204.000 C 259.780 204.000,259.601 204.405,259.602 204.900 C 259.605 205.709,259.667 205.680,260.226 204.609 C 260.567 203.954,261.061 203.282,261.323 203.115 C 261.644 202.911,261.571 202.810,261.100 202.806 C 260.715 202.803,260.400 203.070,260.400 203.400 M262.472 205.859 C 261.967 206.629,261.640 207.471,261.745 207.730 C 261.874 208.047,261.947 208.025,261.968 207.662 C 261.986 207.366,262.380 206.590,262.844 205.939 C 263.308 205.287,263.621 204.687,263.539 204.606 C 263.457 204.524,262.977 205.088,262.472 205.859 M258.670 206.210 C 258.521 206.645,258.291 207.270,258.158 207.600 C 258.026 207.930,258.219 207.790,258.588 207.290 C 258.958 206.789,259.188 206.164,259.100 205.900 C 259.010 205.631,258.822 205.767,258.670 206.210 M255.214 212.565 C 254.904 213.354,254.504 214.000,254.325 214.000 C 254.146 214.000,254.000 214.270,254.000 214.600 C 254.000 214.930,253.820 215.200,253.600 215.200 C 253.380 215.200,253.201 215.605,253.202 216.100 C 253.205 216.984,253.215 216.982,253.740 216.000 C 254.034 215.450,254.671 214.305,255.156 213.455 C 255.640 212.605,255.978 211.735,255.907 211.520 C 255.835 211.306,255.523 211.776,255.214 212.565 M256.400 216.601 C 255.802 217.717,253.802 217.994,252.799 217.100 C 252.322 216.675,252.318 216.704,252.768 217.300 C 253.605 218.406,255.766 218.216,256.586 216.965 C 256.959 216.396,257.190 215.856,257.099 215.766 C 257.009 215.675,256.694 216.051,256.400 216.601 M193.489 218.049 C 194.103 218.663,193.676 219.600,192.781 219.600 C 191.899 219.600,191.447 218.976,191.752 218.181 C 192.018 217.489,192.864 217.424,193.489 218.049 M257.200 218.100 C 257.200 218.459,257.392 218.871,257.627 219.016 C 258.313 219.440,258.380 219.061,257.767 218.223 C 257.293 217.574,257.200 217.554,257.200 218.100 M243.802 221.598 C 243.403 222.039,243.207 222.400,243.367 222.400 C 243.788 222.400,244.928 221.195,244.712 220.979 C 244.611 220.878,244.202 221.156,243.802 221.598 M262.436 222.500 C 263.151 223.545,263.801 224.400,263.882 224.400 C 264.153 224.400,263.246 223.008,262.188 221.800 C 261.392 220.892,261.452 221.062,262.436 222.500 M149.300 223.499 C 154.625 223.629,155.002 223.787,153.600 225.292 C 153.160 225.764,152.800 226.387,152.800 226.675 C 152.800 226.964,152.632 227.200,152.427 227.200 C 152.222 227.200,151.940 227.559,151.801 227.998 C 151.662 228.436,151.328 229.021,151.061 229.298 C 148.873 231.555,148.316 233.377,149.700 233.748 C 150.195 233.881,166.832 233.992,186.672 233.995 L 222.743 234.000 224.175 235.351 C 226.136 237.200,226.135 237.200,243.426 237.200 C 258.840 237.200,259.883 237.105,258.799 235.799 C 258.132 234.995,257.794 226.530,258.401 225.799 C 259.400 224.595,258.381 224.400,251.076 224.395 C 243.748 224.389,241.825 224.206,242.228 223.555 C 242.355 223.349,221.795 223.237,193.324 223.287 C 166.306 223.335,146.495 223.430,149.300 223.499 M229.200 223.955 C 229.200 224.151,228.525 224.434,227.700 224.585 C 224.700 225.133,223.200 227.068,223.200 230.387 L 223.200 232.000 187.187 232.000 C 156.117 232.000,151.144 231.920,150.953 231.421 C 150.719 230.811,151.718 228.766,152.900 227.437 C 153.285 227.003,153.600 226.413,153.600 226.125 C 153.600 225.836,153.750 225.600,153.932 225.600 C 154.115 225.600,154.506 225.150,154.800 224.600 L 155.335 223.600 192.268 223.600 C 213.539 223.600,229.200 223.751,229.200 223.955 M257.400 230.800 L 257.400 235.800 244.000 235.914 C 229.289 236.040,227.731 235.869,226.388 233.983 C 225.347 232.521,225.300 228.589,226.309 227.352 C 227.700 225.646,228.012 225.615,243.000 225.709 L 257.400 225.800 257.400 230.800 M264.978 228.200 C 265.134 229.080,265.414 229.957,265.599 230.148 C 265.785 230.340,265.761 229.715,265.546 228.760 C 265.046 226.531,264.604 226.097,264.978 228.200 M127.597 231.100 C 127.594 231.515,126.617 232.429,125.197 233.344 C 123.878 234.193,122.800 234.969,122.800 235.068 C 122.800 235.270,122.966 235.176,125.900 233.310 C 127.661 232.191,128.830 230.400,127.800 230.400 C 127.690 230.400,127.598 230.715,127.597 231.100 M222.955 232.795 C 223.723 233.563,221.545 233.605,186.005 233.503 C 154.205 233.413,149.797 233.327,149.695 232.800 C 149.558 232.088,222.243 232.083,222.955 232.795 M121.362 236.058 C 120.604 236.912,120.605 236.914,121.500 236.444 C 121.995 236.184,122.400 235.798,122.400 235.586 C 122.400 235.018,122.209 235.105,121.362 236.058 M277.113 235.695 C 277.579 236.256,279.200 236.938,279.200 236.573 C 279.200 236.489,278.615 236.118,277.900 235.748 C 276.801 235.180,276.679 235.172,277.113 235.695 M149.548 239.700 C 149.180 240.414,149.373 243.200,149.791 243.200 C 150.352 243.200,150.995 240.639,150.596 239.993 C 150.378 239.641,149.680 239.445,149.548 239.700 M152.800 241.400 C 152.800 243.133,152.844 243.200,154.000 243.200 C 154.660 243.200,155.200 243.020,155.200 242.800 C 155.200 242.580,154.840 242.400,154.400 242.400 C 153.752 242.400,153.600 242.133,153.600 241.000 C 153.600 240.230,153.420 239.600,153.200 239.600 C 152.980 239.600,152.800 240.410,152.800 241.400 M157.563 239.676 C 156.921 241.804,157.346 243.200,158.638 243.200 C 159.387 243.200,160.000 243.020,160.000 242.800 C 160.000 242.580,159.640 242.400,159.200 242.400 C 158.581 242.400,158.400 242.133,158.400 241.224 C 158.400 240.305,157.741 239.086,157.563 239.676 M161.056 239.878 C 160.144 240.789,160.829 243.200,162.000 243.200 C 163.363 243.200,163.613 242.601,162.384 242.280 C 161.744 242.112,161.622 241.853,161.816 241.077 C 162.057 240.118,161.575 239.358,161.056 239.878 M169.706 240.153 C 169.586 240.347,169.784 240.671,170.146 240.874 C 170.604 241.130,170.730 241.541,170.559 242.221 C 170.354 243.039,170.459 243.200,171.200 243.200 C 171.941 243.200,172.046 243.039,171.841 242.221 C 171.667 241.526,171.798 241.129,172.294 240.851 C 172.679 240.636,172.845 240.312,172.663 240.130 C 172.223 239.690,169.981 239.707,169.706 240.153 M174.561 240.275 C 174.433 240.674,174.134 241.405,173.896 241.899 C 173.428 242.878,173.839 243.708,174.368 242.852 C 174.635 242.419,174.841 242.419,175.528 242.848 C 176.698 243.579,176.909 243.159,176.211 241.489 C 175.485 239.749,174.874 239.301,174.561 240.275 M180.000 240.376 C 180.000 240.829,180.180 241.200,180.400 241.200 C 180.620 241.200,180.800 240.941,180.800 240.624 C 180.800 240.307,180.620 239.936,180.400 239.800 C 180.180 239.664,180.000 239.923,180.000 240.376 M182.348 239.651 C 182.320 239.733,182.247 240.540,182.186 241.445 L 182.075 243.091 183.637 243.091 C 185.376 243.091,185.526 242.930,184.500 242.168 C 183.891 241.717,183.870 241.533,184.340 240.766 C 184.822 239.978,184.806 239.912,184.189 240.149 C 183.809 240.295,183.251 240.209,182.949 239.958 C 182.647 239.707,182.377 239.569,182.348 239.651 M193.809 239.924 C 192.785 240.948,193.676 243.199,195.100 243.187 C 196.433 243.176,196.522 243.115,195.900 242.643 C 195.148 242.072,194.941 240.800,195.600 240.800 C 195.820 240.800,196.000 240.641,196.000 240.447 C 196.000 240.047,194.132 239.602,193.809 239.924 M197.809 239.924 C 196.960 240.773,197.658 243.200,198.751 243.200 C 200.004 243.200,201.138 242.256,200.419 241.812 C 200.189 241.669,200.000 241.224,200.000 240.823 C 200.000 240.128,198.302 239.431,197.809 239.924 M203.439 239.894 C 202.367 240.966,203.256 243.244,204.700 243.124 C 206.325 242.990,207.411 240.000,205.834 240.000 C 205.365 240.000,205.277 240.284,205.460 241.200 C 205.645 242.125,205.556 242.400,205.074 242.400 C 204.226 242.400,203.807 241.633,204.355 241.085 C 204.600 240.840,204.800 240.515,204.800 240.363 C 204.800 239.974,203.728 239.605,203.439 239.894 M208.000 241.367 C 208.000 243.137,208.041 243.200,209.200 243.200 C 209.860 243.200,210.400 243.020,210.400 242.800 C 210.400 242.580,210.141 242.400,209.825 242.400 C 209.473 242.400,209.202 241.909,209.125 241.131 C 208.919 239.042,208.000 239.235,208.000 241.367 M216.000 241.000 C 216.000 241.770,215.955 242.535,215.900 242.700 C 215.845 242.865,216.385 243.056,217.100 243.125 C 217.830 243.196,218.400 243.064,218.400 242.825 C 218.400 242.591,218.130 242.400,217.800 242.400 C 217.470 242.400,217.200 242.055,217.200 241.633 C 217.200 240.588,216.791 239.600,216.357 239.600 C 216.161 239.600,216.000 240.230,216.000 241.000 M219.963 239.676 C 219.321 241.804,219.746 243.200,221.038 243.200 C 221.787 243.200,222.400 243.020,222.400 242.800 C 222.400 242.580,222.040 242.400,221.600 242.400 C 220.981 242.400,220.800 242.133,220.800 241.224 C 220.800 240.305,220.141 239.086,219.963 239.676 M228.000 241.400 C 228.000 242.716,228.147 243.217,228.500 243.099 C 228.784 243.004,229.000 242.268,229.000 241.398 C 229.000 240.528,228.784 239.794,228.500 239.700 C 228.148 239.582,228.000 240.085,228.000 241.400 M231.948 239.667 C 231.239 241.497,231.763 243.200,233.035 243.200 C 233.786 243.200,234.400 243.020,234.400 242.800 C 234.400 242.580,234.058 242.400,233.641 242.400 C 233.044 242.400,232.895 242.131,232.941 241.143 C 232.987 240.165,232.205 239.003,231.948 239.667 M235.948 239.657 C 235.284 241.495,235.760 243.116,236.955 243.082 C 238.335 243.043,239.180 240.000,237.812 240.000 C 237.511 240.000,236.981 239.891,236.633 239.757 C 236.285 239.624,235.977 239.579,235.948 239.657 M155.200 240.600 C 155.200 240.930,155.380 241.200,155.600 241.200 C 155.820 241.200,156.000 240.930,156.000 240.600 C 156.000 240.270,155.820 240.000,155.600 240.000 C 155.380 240.000,155.200 240.270,155.200 240.600 M166.400 241.600 C 166.400 242.956,166.488 243.067,167.576 243.067 C 168.674 243.067,168.748 242.970,168.694 241.600 C 168.641 240.275,168.527 240.133,167.518 240.133 C 166.497 240.133,166.400 240.261,166.400 241.600 M178.080 240.480 C 176.934 241.626,177.860 243.200,179.680 243.200 C 180.296 243.200,180.800 243.001,180.800 242.757 C 180.800 242.514,180.543 242.413,180.229 242.533 C 179.431 242.840,178.682 241.801,178.994 240.819 C 179.282 239.911,178.821 239.739,178.080 240.480 M188.000 240.381 C 188.000 240.743,188.803 242.787,189.103 243.188 C 189.180 243.292,189.400 243.124,189.591 242.814 C 189.865 242.372,190.063 242.354,190.516 242.731 C 191.215 243.310,191.796 242.738,192.072 241.200 C 192.263 240.133,190.233 239.661,189.470 240.595 C 189.253 240.861,189.069 240.828,188.936 240.500 C 188.699 239.914,188.000 239.826,188.000 240.381 M211.848 241.100 C 212.142 242.332,212.721 243.200,213.249 243.200 C 213.809 243.200,213.656 242.058,212.954 240.986 C 212.095 239.674,211.521 239.733,211.848 241.100 M213.600 240.600 C 213.600 240.930,213.780 241.200,214.000 241.200 C 214.220 241.200,214.400 240.930,214.400 240.600 C 214.400 240.270,214.220 240.000,214.000 240.000 C 213.780 240.000,213.600 240.270,213.600 240.600 M223.276 241.500 C 223.392 242.908,223.489 243.007,224.848 243.121 C 226.407 243.251,226.957 242.486,226.516 240.800 C 226.200 239.594,225.600 239.840,225.600 241.176 C 225.600 242.500,225.217 242.905,224.427 242.417 C 224.078 242.201,223.983 241.723,224.153 241.043 C 224.353 240.249,224.265 240.000,223.783 240.000 C 223.298 240.000,223.180 240.347,223.276 241.500 M229.600 240.800 C 229.600 241.240,229.780 241.600,230.000 241.600 C 230.220 241.600,230.400 241.240,230.400 240.800 C 230.400 240.360,230.220 240.000,230.000 240.000 C 229.780 240.000,229.600 240.360,229.600 240.800 M120.470 246.867 C 120.431 247.674,120.509 248.619,120.643 248.967 C 120.863 249.541,128.230 249.600,200.035 249.600 L 279.185 249.600 279.424 248.648 C 279.555 248.125,279.585 247.180,279.491 246.548 C 279.362 245.683,279.305 245.819,279.260 247.100 L 279.200 248.800 200.023 248.800 L 120.846 248.800 120.693 247.100 C 120.543 245.435,120.538 245.430,120.470 246.867 " stroke="none" fill="#9b9b9b" fill-rule="evenodd"></path></g></svg>