<?xml version="1.0" standalone="no"?>
<!DOCTYPE svg PUBLIC "-//W3C//DTD SVG 20010904//EN"
 "http://www.w3.org/TR/2001/REC-SVG-20010904/DTD/svg10.dtd">
<svg version="1.0" xmlns="http://www.w3.org/2000/svg"
 width="500.000000pt" height="500.000000pt" viewBox="0 0 500.000000 500.000000"
 preserveAspectRatio="xMidYMid meet">

<g transform="translate(0.000000,500.000000) scale(0.100000,-0.100000)"
fill="#000000" stroke="none">
<path d="M3000 3085 c-19 -8 -61 -19 -92 -25 -32 -6 -58 -14 -58 -17 0 -6 113
-170 142 -206 l23 -28 34 58 c19 32 43 66 53 77 19 18 20 18 33 0 25 -36 214
-279 229 -296 9 -10 25 -18 35 -18 22 0 37 35 23 53 -5 7 -77 100 -161 209
-83 108 -158 199 -167 202 -24 9 -56 6 -94 -9z"/>
<path d="M1930 2804 c0 -36 -7 -54 -29 -83 -38 -49 -51 -75 -51 -105 0 -32 12
-39 46 -26 15 6 29 9 31 7 2 -3 -14 -27 -37 -55 -22 -28 -40 -56 -40 -62 0
-18 23 -11 53 18 l29 27 -2 -60 c-1 -33 -2 -99 -1 -147 l1 -88 480 0 480 0 0
125 c0 117 1 125 21 136 16 8 23 8 29 -1 6 -9 13 -9 29 -1 14 8 21 8 21 1 0
-18 27 -11 58 15 l29 24 -5 -24 c-2 -14 0 -25 5 -25 18 0 84 52 80 63 -2 7 0
20 4 29 13 25 -8 33 -36 14 -30 -20 -36 -20 -29 -1 7 16 -11 21 -21 6 -3 -6
-26 -24 -51 -41 l-46 -31 31 38 c17 21 31 41 31 45 0 19 -25 5 -59 -34 -20
-22 -42 -39 -48 -37 -6 2 29 50 78 107 49 57 89 107 89 113 0 17 -20 9 -43
-18 -52 -64 -124 -132 -144 -138 -20 -6 -23 -3 -23 25 0 23 11 45 40 77 22 25
40 50 40 54 0 19 -25 7 -51 -23 l-28 -33 -1 78 0 77 -480 0 -480 0 0 -46z
m213 -52 c-43 -38 -84 -76 -92 -85 -26 -33 -31 -16 -6 22 32 48 44 108 23 116
-8 3 -34 0 -56 -8 -32 -11 -42 -12 -42 -2 0 22 13 25 132 25 l118 0 -77 -68z
m705 -20 c3 -96 -2 -106 -65 -133 -24 -10 -66 -36 -95 -57 -29 -22 -63 -45
-76 -52 -21 -10 -23 -10 -13 7 10 18 138 173 150 183 9 7 51 76 51 84 0 3 -9
6 -20 6 -11 0 -20 -4 -20 -8 0 -12 -175 -183 -237 -232 -29 -23 -53 -39 -53
-36 0 3 29 38 65 78 89 99 129 183 100 212 -32 32 -114 -8 -176 -86 -21 -28
-42 -62 -45 -76 -8 -30 -22 -52 -35 -52 -5 0 -6 7 -3 15 9 22 -13 18 -49 -7
-20 -14 -27 -16 -19 -6 21 26 -6 34 -29 9 -11 -11 -34 -28 -52 -37 l-32 -16
34 36 c28 29 32 36 18 42 -11 4 -26 -6 -48 -30 -17 -20 -36 -36 -43 -36 -6 0
-4 6 6 13 9 7 18 22 20 32 2 17 -2 19 -27 17 -43 -5 -91 -37 -105 -73 -18 -42
0 -61 31 -33 13 10 19 14 16 7 -11 -17 12 -27 29 -12 13 10 17 10 24 -2 8 -12
14 -11 39 4 26 15 30 16 25 2 -8 -19 5 -19 34 1 20 14 22 14 22 0 0 -11 8 -15
24 -14 14 1 23 5 20 9 -2 4 2 9 10 12 8 3 17 -1 20 -8 6 -17 27 -11 69 17 25
18 40 47 15 32 -6 -4 -8 -3 -4 4 7 11 93 72 102 72 3 0 -10 -19 -29 -42 -40
-50 -57 -80 -57 -102 0 -27 22 -18 84 32 32 26 68 54 80 62 20 14 20 14 4 -6
-10 -11 -24 -37 -33 -57 -14 -35 -14 -38 1 -44 10 -4 34 3 56 16 31 18 42 20
54 10 11 -9 18 -9 30 2 13 10 17 10 24 -1 7 -11 14 -12 35 -2 20 9 31 10 41 1
7 -6 18 -8 24 -4 7 5 10 -23 8 -92 l-3 -98 -210 -5 c-177 -4 -210 -7 -210 -20
0 -8 -9 -16 -19 -18 -15 -3 -18 0 -13 17 5 20 2 21 -206 23 l-212 3 -3 79 -3
78 63 77 c158 192 189 234 195 262 l6 29 306 -2 306 -3 3 -83z m-788 46 c0 -6
-14 -33 -31 -59 -36 -57 -62 -57 -57 0 2 30 9 39 38 53 41 21 50 22 50 6z
m560 -21 c0 -23 -54 -98 -67 -92 -7 2 -29 -11 -49 -30 -45 -44 -71 -48 -50 -7
22 42 74 104 104 124 32 21 62 23 62 5z m-563 -139 c-72 -91 -82 -100 -85 -78
-3 20 11 39 80 102 45 43 84 78 85 78 1 0 -35 -46 -80 -102z m-127 47 c0 -28
-5 -37 -30 -50 -23 -12 -30 -13 -30 -3 0 14 47 88 55 88 3 0 5 -16 5 -35z
m790 11 c0 -2 -8 -10 -17 -17 -16 -13 -17 -12 -4 4 13 16 21 21 21 13z m114
-127 c-32 -35 -47 -21 -17 16 21 26 29 31 31 19 2 -8 -4 -24 -14 -35z m-709
11 c-10 -11 -21 -18 -23 -15 -3 3 3 12 14 20 27 20 30 18 9 -5z m655 7 c0 -2
-15 -13 -32 -26 l-33 -22 28 25 c26 24 37 31 37 23z m-470 -31 c0 -2 -8 -10
-17 -17 -16 -13 -17 -12 -4 4 13 16 21 21 21 13z"/>
<path d="M2255 2639 c-8 -12 0 -22 20 -25 9 -1 15 6 15 17 0 20 -24 26 -35 8z"/>
<path d="M3042 2633 c4 -23 34 -25 35 -2 1 13 -5 19 -18 19 -14 0 -19 -6 -17
-17z"/>
<path d="M3340 2566 c0 -2 8 -10 18 -17 15 -13 16 -12 3 4 -13 16 -21 21 -21
13z"/>
<path d="M1575 2313 c15 -121 26 -216 23 -217 -2 -1 -19 -12 -38 -24 l-35 -22
638 0 c418 0 637 3 637 10 0 7 -159 10 -457 10 -258 0 -464 4 -472 9 -12 8 -8
19 22 65 l37 55 -68 3 c-52 2 -67 6 -66 18 0 8 4 41 7 73 l7 57 -120 0 -120 0
5 -37z"/>
<path d="M3108 2266 c-43 -25 -78 -55 -78 -68 0 -4 45 -8 100 -8 l100 0 0 -70
0 -70 116 0 117 0 -74 38 c-66 33 -75 41 -81 72 -8 41 -76 110 -108 110 -12 0
-29 4 -38 8 -11 6 -29 2 -54 -12z"/>
<path d="M1913 2160 c-18 -27 -33 -52 -33 -55 0 -3 205 -5 455 -5 l455 0 0 23
c0 34 28 67 56 67 13 0 24 5 24 10 0 7 -161 10 -462 10 l-463 0 -32 -50z"/>
<path d="M1860 1980 c0 -31 9 -37 27 -19 8 8 13 8 17 0 4 -6 14 -11 22 -11 9
0 12 5 8 11 -5 8 -1 8 14 0 27 -15 89 -14 98 1 4 6 2 14 -4 16 -7 2 -12 10
-12 18 0 20 -28 17 -33 -3 -4 -17 -5 -17 -6 0 -1 14 -11 17 -66 17 l-65 0 0
-30z m17 -12 c-3 -7 -5 -2 -5 12 0 14 2 19 5 13 2 -7 2 -19 0 -25z m40 0 c-3
-7 -5 -2 -5 12 0 14 2 19 5 13 2 -7 2 -19 0 -25z m60 0 c-3 -7 -5 -2 -5 12 0
14 2 19 5 13 2 -7 2 -19 0 -25z"/>
<path d="M2074 1995 c-11 -28 3 -43 40 -42 22 1 31 4 23 9 -9 6 -9 8 0 8 6 0
14 -4 18 -9 8 -14 106 -10 98 3 -3 6 0 5 8 -1 7 -7 23 -13 35 -13 19 0 23 5
22 30 -1 29 -3 30 -44 30 -24 0 -46 -5 -50 -12 -4 -6 -3 -8 2 -5 5 3 10 -3 10
-14 0 -16 -3 -15 -22 9 -20 24 -25 26 -44 14 -12 -8 -19 -9 -15 -3 4 7 -8 11
-35 11 -27 0 -43 -5 -46 -15z m33 -17 c2 -16 0 -16 -13 -4 -17 18 -18 23 -1
23 7 0 14 -9 14 -19z m92 4 c7 -14 6 -18 -8 -18 -12 0 -17 6 -13 18 2 10 6 18
8 18 2 0 8 -8 13 -18z m100 0 c8 -14 6 -19 -5 -19 -7 0 -14 9 -14 19 0 10 2
18 5 18 2 0 9 -8 14 -18z"/>
<path d="M2340 2006 c0 -24 23 -56 40 -56 23 0 27 15 5 24 -8 3 -15 0 -15 -6
0 -6 -2 -9 -5 -6 -3 3 -3 13 1 22 6 16 9 15 29 -4 12 -11 25 -17 30 -13 4 5 5
2 1 -4 -9 -16 30 -18 39 -3 3 6 14 10 23 9 14 0 13 -2 -3 -10 l-20 -9 20 3
c14 2 20 10 20 27 0 24 -2 25 -82 28 -46 2 -83 1 -83 -2z m160 -18 c0 -4 -4
-8 -9 -8 -6 0 -12 4 -15 8 -3 5 1 9 9 9 8 0 15 -4 15 -9z"/>
<path d="M2532 1983 c3 -26 7 -28 50 -30 37 -2 51 2 61 17 8 11 17 17 20 13
12 -11 8 -25 -5 -17 -7 5 -8 3 -3 -6 6 -10 11 -9 22 5 12 17 13 17 13 2 0 -10
8 -17 21 -17 13 0 18 4 13 13 -6 9 -5 9 7 0 8 -6 30 -11 51 -10 32 1 37 4 40
29 4 22 1 28 -11 26 -9 -2 -15 -12 -14 -23 1 -11 0 -14 -3 -7 -3 6 -10 10 -15
6 -5 -3 -9 2 -9 10 0 19 -21 21 -39 4 -11 -10 -13 -10 -7 0 5 9 -10 12 -64 12
-66 0 -71 -2 -80 -25 -6 -15 -17 -25 -27 -24 -16 1 -16 2 -2 6 10 2 19 13 22
24 4 15 0 19 -20 19 -21 0 -24 -4 -21 -27z m75 -15 c-3 -7 -5 -2 -5 12 0 14 2
19 5 13 2 -7 2 -19 0 -25z m100 0 c-3 -7 -5 -2 -5 12 0 14 2 19 5 13 2 -7 2
-19 0 -25z m50 0 c-3 -7 -5 -2 -5 12 0 14 2 19 5 13 2 -7 2 -19 0 -25z"/>
<path d="M2834 1995 c-12 -29 3 -42 50 -42 32 -1 44 2 40 10 -5 8 -2 7 7 0 22
-21 59 -16 59 8 0 13 -4 18 -12 13 -7 -5 -9 -2 -5 8 5 13 -5 16 -64 17 -53 1
-71 -3 -75 -14z m23 -27 c-3 -7 -5 -2 -5 12 0 14 2 19 5 13 2 -7 2 -19 0 -25z
m50 0 c-3 -7 -5 -2 -5 12 0 14 2 19 5 13 2 -7 2 -19 0 -25z m61 11 c9 -13 9
-16 -3 -16 -8 0 -15 9 -15 20 0 11 1 18 3 16 1 -2 8 -11 15 -20z"/>
<path d="M1510 1910 c0 -20 7 -20 990 -20 983 0 990 0 990 20 0 20 -7 20 -990
20 -983 0 -990 0 -990 -20z"/>
</g>
</svg>
